<?xml version="1.0" encoding="UTF-8" standalone="no"?>
<!-- Generator: Adobe Illustrator 16.0.0, SVG Export Plug-In . SVG Version: 6.00 Build 0)  -->

<svg
   version="1.1"
   id="Layer_1"
   x="0px"
   y="0px"
   width="64"
   height="64"
   viewBox="0 0 64 64"
   enable-background="new 0 0 128 128"
   xml:space="preserve"
   sodipodi:docname="email-icon.svg"
   inkscape:version="1.3 (0e150ed6c4, 2023-07-21)"
   xmlns:inkscape="http://www.inkscape.org/namespaces/inkscape"
   xmlns:sodipodi="http://sodipodi.sourceforge.net/DTD/sodipodi-0.dtd"
   xmlns="http://www.w3.org/2000/svg"
   xmlns:svg="http://www.w3.org/2000/svg"><defs
   id="defs14" /><sodipodi:namedview
   id="namedview14"
   pagecolor="#ffffff"
   bordercolor="#000000"
   borderopacity="0.25"
   inkscape:showpageshadow="2"
   inkscape:pageopacity="0.0"
   inkscape:pagecheckerboard="0"
   inkscape:deskcolor="#d1d1d1"
   inkscape:zoom="6.21875"
   inkscape:cx="36.984925"
   inkscape:cy="42.532663"
   inkscape:window-width="1920"
   inkscape:window-height="991"
   inkscape:window-x="-9"
   inkscape:window-y="-9"
   inkscape:window-maximized="1"
   inkscape:current-layer="Layer_1" />&#10;<g
   id="g14"
   transform="matrix(0.50575694,0,0,0.5,-0.36869704,0)">&#10;	<g
   id="g5">&#10;		<g
   id="g4">&#10;			<g
   id="g3">&#10;				<g
   id="g2">&#10;					<g
   id="g1">&#10;						<path
   fill="#282d33"
   d="m 64.009,128 c -12.595,0 -24.738,-3.75 -35.198,-10.857 l -21.003,9.935 7.266,-22.551 C 5.814,93.113 0.729,78.768 0.729,64.003 0.729,28.711 29.116,0 64.009,0 V 4 C 31.321,4 4.729,30.917 4.729,64.003 c 0,14.197 5.013,27.979 14.115,38.808 l 0.712,0.848 -5.108,15.853 14.753,-6.978 0.953,0.674 c 9.995,7.06 21.702,10.792 33.855,10.792 32.678,0 59.263,-26.915 59.263,-59.997 h 4 C 127.271,99.291 98.892,128 64.009,128 Z"
   id="path1" />&#10;					</g>&#10;				</g>&#10;			</g>&#10;		</g>&#10;	</g>&#10;	<g
   id="g9">&#10;		<g
   id="g6">&#10;			<path
   fill="#282d33"
   d="m 127.271,64.003 h -4 c 0,-0.632 -0.01,-1.26 -0.027,-1.887 L 127.242,62 c 0.02,0.666 0.029,1.333 0.029,2.003 z"
   id="path5" />&#10;		</g>&#10;		<g
   id="g7">&#10;			<path
   fill="#282d33"
   d="m 122.997,58.212 c -0.126,-1.333 -0.297,-2.674 -0.51,-3.987 l 3.949,-0.639 c 0.227,1.4 0.409,2.83 0.543,4.25 z m -1.283,-7.931 c -0.3,-1.302 -0.647,-2.608 -1.033,-3.882 l 3.828,-1.159 c 0.411,1.359 0.782,2.752 1.104,4.143 z m -2.327,-7.691 c -0.47,-1.245 -0.99,-2.495 -1.546,-3.715 l 3.641,-1.657 c 0.592,1.3 1.146,2.632 1.647,3.959 z m -3.335,-7.315 c -0.636,-1.178 -1.317,-2.346 -2.026,-3.473 l 3.385,-2.131 c 0.757,1.202 1.483,2.448 2.161,3.704 z m -4.281,-6.802 c -0.785,-1.08 -1.617,-2.147 -2.472,-3.172 l 3.072,-2.562 c 0.911,1.092 1.798,2.23 2.634,3.381 z m -5.148,-6.169 c -0.923,-0.968 -1.889,-1.914 -2.869,-2.811 l 2.699,-2.951 c 1.048,0.958 2.079,1.968 3.064,3 z m -5.922,-5.425 C 99.66,16.047 98.576,15.239 97.48,14.478 l 2.281,-3.285 c 1.17,0.812 2.325,1.674 3.436,2.561 z m -6.596,-4.578 c -1.148,-0.687 -2.33,-1.34 -3.513,-1.941 l 1.814,-3.565 c 1.263,0.643 2.525,1.34 3.751,2.074 z M 86.957,8.664 C 85.732,8.143 84.474,7.657 83.215,7.221 l 1.311,-3.779 c 1.344,0.466 2.689,0.984 3.998,1.542 z M 79.38,6.038 C 78.095,5.69 76.779,5.382 75.472,5.122 l 0.779,-3.924 c 1.397,0.278 2.802,0.607 4.176,0.979 z M 71.51,4.476 C 70.297,4.321 69.06,4.202 67.833,4.122 l 0.258,-3.991 c 1.31,0.084 2.631,0.211 3.927,0.377 z"
   id="path6" />&#10;		</g>&#10;		<g
   id="g8">&#10;			<path
   fill="#282d33"
   d="M 65.894,4.029 C 65.268,4.009 64.639,4 64.009,4 V 0 c 0.671,0 1.341,0.01 2.008,0.031 z"
   id="path7" />&#10;		</g>&#10;	</g>&#10;	<g
   id="g13">&#10;		<g
   id="g10">&#10;			<path
   fill="#282d33"
   d="m 62.999,97.421 c -18.521,0 -33.59,-15.235 -33.59,-33.962 0,-18.725 15.068,-33.959 33.59,-33.959 10.106,0 19.58,4.539 25.992,12.452 l -3.107,2.519 c -5.649,-6.972 -13.99,-10.97 -22.885,-10.97 -16.316,0 -29.59,13.439 -29.59,29.959 0,16.521 13.273,29.962 29.59,29.962 6.49,0 12.652,-2.091 17.822,-6.046 l 2.43,3.178 c -5.873,4.492 -12.876,6.867 -20.252,6.867 z"
   id="path9" />&#10;		</g>&#10;		<g
   id="g11">&#10;			<path
   fill="#282d33"
   d="m 57.293,79.64 c -10e-4,0 0,0 0,0 -1.273,0 -2.625,-0.206 -4.02,-0.612 -4.127,-1.199 -7.145,-4.559 -8.278,-9.218 -1.558,-6.398 0.775,-13.514 6.09,-18.57 4.626,-4.396 10.991,-5.318 15.517,-5.318 3.835,0 6.683,0.647 6.803,0.675 l 2.081,0.48 -0.616,2.045 c -0.232,0.773 -5.711,18.963 -6.686,21.785 -0.902,2.622 -3.771,8.733 -10.891,8.733 z m 9.309,-29.719 c -3.797,0 -9.092,0.732 -12.761,4.217 -5.114,4.866 -5.916,10.797 -4.959,14.726 0.786,3.229 2.794,5.533 5.509,6.322 1.032,0.301 2.008,0.453 2.901,0.453 4.381,0 6.335,-3.782 7.109,-6.037 0.754,-2.181 4.454,-14.4 5.979,-19.451 -1.009,-0.122 -2.315,-0.23 -3.778,-0.23 z"
   id="path10" />&#10;		</g>&#10;		<g
   id="g12">&#10;			<path
   fill="#282d33"
   d="m 76.264,79.34 c -2.741,0 -5.24,-0.957 -7.278,-2.832 -4.414,-4.059 -0.247,-20.375 1.136,-25.279 l 3.85,1.085 c -2.782,9.878 -3.847,19.808 -2.278,21.251 2.507,2.304 5.543,1.94 7.649,1.23 4.672,-1.575 10.074,-6.943 11.363,-14.157 0.94,-5.27 0.026,-13.193 -9.673,-21.017 l 2.512,-3.113 c 11.813,9.529 12.024,19.649 11.099,24.833 -1.401,7.842 -7.167,14.933 -14.022,17.245 -1.497,0.504 -2.96,0.754 -4.358,0.754 z"
   id="path11" />&#10;		</g>&#10;	</g>&#10;</g>&#10;</svg>
