<?xml version="1.0" encoding="UTF-8" standalone="no"?>
<!-- Generator: Adobe Illustrator 16.0.0, SVG Export Plug-In . SVG Version: 6.00 Build 0)  -->

<svg
   version="1.1"
   id="Layer_1"
   x="0px"
   y="0px"
   width="64"
   height="64"
   viewBox="0 0 64 64"
   enable-background="new 0 0 64 64"
   xml:space="preserve"
   sodipodi:docname="whatsapp-icon.svg"
   inkscape:version="1.3 (0e150ed6c4, 2023-07-21)"
   xmlns:inkscape="http://www.inkscape.org/namespaces/inkscape"
   xmlns:sodipodi="http://sodipodi.sourceforge.net/DTD/sodipodi-0.dtd"
   xmlns="http://www.w3.org/2000/svg"
   xmlns:svg="http://www.w3.org/2000/svg"><defs
   id="defs1" /><sodipodi:namedview
   id="namedview1"
   pagecolor="#ffffff"
   bordercolor="#000000"
   borderopacity="0.25"
   inkscape:showpageshadow="2"
   inkscape:pageopacity="0.0"
   inkscape:pagecheckerboard="0"
   inkscape:deskcolor="#d1d1d1"
   inkscape:zoom="12.421875"
   inkscape:cx="32"
   inkscape:cy="31.919497"
   inkscape:window-width="1920"
   inkscape:window-height="991"
   inkscape:window-x="-9"
   inkscape:window-y="-9"
   inkscape:window-maximized="1"
   inkscape:current-layer="Layer_1" />&#10;<path
   fill-rule="evenodd"
   clip-rule="evenodd"
   fill="#25d366"
   d="m 45.132,40.499 -6.47,-1.217 c -1.102,-0.206 -1.836,-1.326 -1.642,-2.499 0.194,-1.174 1.243,-1.956 2.345,-1.75 l 7.074,1.33 c 2.363,0.48 3.924,2.759 3.488,5.145 -0.01,0.054 -0.027,0.102 -0.037,0.155 -0.327,1.173 -0.875,2.247 -1.678,3.171 -4.615,5.305 -15.559,3.777 -24.443,-3.416 -8.885,-7.19 -12.347,-17.321 -7.73,-22.625 1.098,-1.264 2.56,-2.131 4.264,-2.631 0.143,-0.036 0.281,-0.087 0.424,-0.108 0,0 0.002,-0.003 0.005,-0.003 1.925,-0.296 3.845,0.762 4.614,2.616 l 2.519,6.749 c 0.373,0.998 -0.155,2.102 -1.181,2.465 -1.023,0.364 -2.155,-0.15 -2.528,-1.148 L 21.841,20.529 C 21.65,20.12 21.187,19.906 20.75,20.054 c -0.64,0.303 -1.198,0.703 -1.646,1.219 -3.195,3.673 0.043,11.37 7.236,17.19 7.193,5.82 15.615,7.563 18.809,3.891 0.197,-0.228 0.361,-0.473 0.508,-0.729 0.038,-0.072 0.07,-0.147 0.084,-0.232 0.066,-0.416 -0.206,-0.799 -0.609,-0.894 z M 6,42 c 0,1.105 -0.895,2 -2,2 -1.105,0 -2,-0.895 -2,-2 0,-1.105 0.895,-2 2,-2 1.105,0 2,0.895 2,2 z M 32,64 C 26.975,64 22.228,62.827 17.998,60.761 17.933,60.733 17.87,60.703 17.809,60.674 17.748,60.645 17.685,60.618 17.624,60.587 16.453,60 15.071,59.823 13.709,60.194 c -0.026,0.007 -0.053,0.012 -0.08,0.019 L 7.825,61.825 C 7.804,61.83 7.779,61.83 7.757,61.838 6.991,62.049 6.162,62.064 5.342,61.838 2.92,61.173 1.497,58.672 2.162,56.25 2.176,56.194 2.181,56.152 2.193,56.102 L 3.889,50 H 4 c 0,-1.105 0.895,-2 2,-2 1.105,0 2,0.895 2,2 h 0.041 l -0.065,0.235 c -0.024,0.216 -0.08,0.419 -0.169,0.608 L 6.012,57.31 c 0,0.004 0.007,-0.003 0.007,0.002 -0.08,0.291 0.094,0.592 0.385,0.669 0.087,0.024 0.175,0.024 0.254,0.008 0.005,0 -0.002,0.01 0,0.01 l 5.952,-1.654 c 0.012,-0.002 0.02,-0.002 0.032,-0.004 2.342,-0.643 4.72,-0.352 6.737,0.651 0.02,0.01 0.043,0.013 0.065,0.02 C 23.222,58.914 27.481,60 32,60 47.465,60 60,47.464 60,32 60,16.536 47.465,4 32,4 16.536,4 4,16.536 4,32 c 0,0.587 0.029,1.169 0.065,1.745 l -0.09,0.008 C 3.985,33.833 4,33.915 4,34 4,35.105 3.105,36 2,36 0.895,36 0,35.105 0,34 0,33.848 0.02,33.699 0.053,33.559 0.026,33.04 0,32.523 0,32 0,14.327 14.327,0 32,0 49.673,0 64,14.327 64,32 64,49.673 49.673,64 32,64 Z"
   id="path1" />&#10;</svg>
