<?xml version="1.0" encoding="iso-8859-1"?>
<!-- Generator: Adobe Illustrator 19.0.0, SVG Export Plug-In . SVG Version: 6.00 Build 0)  -->
<svg xmlns="http://www.w3.org/2000/svg" xmlns:xlink="http://www.w3.org/1999/xlink" version="1.1" id="Layer_1" x="0px" y="0px" viewBox="0 0 512.001 512.001" style="enable-background:new 0 0 512.001 512.001;" xml:space="preserve">
<rect x="24.57" y="111.181" style="fill:#FD5D65;" width="126.931" height="392.175"/>
<rect x="24.57" y="111.181" style="fill:#E54E5C;" width="39.969" height="392.175"/>
<polygon style="fill:#DCEBEF;" points="151.496,111.181 24.57,111.181 88.033,8.641 "/>
<polygon style="fill:#FD5D65;" points="127.908,73.069 48.157,73.069 88.033,8.642 "/>
<rect x="192.534" y="111.181" style="fill:#62DCD2;" width="126.931" height="392.175"/>
<rect x="192.534" y="111.181" style="fill:#55C9BE;" width="39.969" height="392.175"/>
<polygon style="fill:#DCEBEF;" points="319.463,111.181 192.537,111.181 256,8.641 "/>
<polygon style="fill:#62DCD2;" points="295.875,73.069 216.125,73.069 256,8.642 "/>
<rect x="360.503" y="111.181" style="fill:#FEC95B;" width="126.931" height="392.175"/>
<rect x="360.503" y="111.181" style="fill:#E2AD50;" width="39.969" height="392.175"/>
<polygon style="fill:#DCEBEF;" points="487.431,111.181 360.504,111.181 423.967,8.641 "/>
<polygon style="fill:#FEC95B;" points="463.843,73.069 384.093,73.069 423.968,8.642 "/>
<path d="M158.843,106.633L95.38,4.094C93.806,1.548,91.026,0,88.033,0s-5.773,1.548-7.347,4.094l-63.463,102.54l0.007,0.005  c-0.819,1.321-1.301,2.875-1.301,4.544V503.36c0,4.772,3.868,8.641,8.641,8.641h126.926c4.773,0,8.641-3.869,8.641-8.641V111.181  c0-1.669-0.482-3.223-1.301-4.544L158.843,106.633z M40.08,102.54L52.971,81.71h70.123l12.892,20.829H40.08z M88.033,25.06  l24.365,39.368H63.667L88.033,25.06z M142.855,494.718h-22.687V192.304c0-4.772-3.868-8.641-8.641-8.641s-8.641,3.869-8.641,8.641  v302.414H73.181V376.632c0-4.772-3.868-8.641-8.641-8.641c-4.773,0-8.641,3.869-8.641,8.641v118.086H33.211V119.822h22.687v228.007  c0,4.772,3.868,8.641,8.641,8.641c4.773,0,8.641-3.869,8.641-8.641V119.822h29.707v43.105c0,4.772,3.868,8.641,8.641,8.641  s8.641-3.869,8.641-8.641v-43.105h22.687C142.855,119.822,142.855,494.718,142.855,494.718z"/>
<path d="M326.81,106.633L263.347,4.094C261.773,1.548,258.993,0,256.001,0c-2.992,0-5.773,1.548-7.347,4.094l-63.463,102.54  l0.007,0.005c-0.819,1.321-1.301,2.875-1.301,4.544V503.36c0,4.772,3.868,8.641,8.641,8.641h126.926  c4.773,0,8.641-3.869,8.641-8.641V111.181c0-1.669-0.482-3.223-1.301-4.544L326.81,106.633z M208.047,102.54l12.891-20.829h70.123  l12.892,20.829H208.047z M256.001,25.06l24.365,39.368h-48.732L256.001,25.06z M310.823,494.718h-22.687v-83.212  c0-4.772-3.868-8.641-8.641-8.641c-4.773,0-8.641,3.869-8.641,8.641v83.212h-29.705V270.402c0-4.772-3.868-8.641-8.641-8.641  s-8.641,3.869-8.641,8.641v224.316H201.18V119.822h22.687v121.777c0,4.772,3.868,8.641,8.641,8.641s8.641-3.869,8.641-8.641V119.822  h29.705v262.306c0,4.772,3.868,8.641,8.641,8.641c4.773,0,8.641-3.869,8.641-8.641V119.822h22.687V494.718z"/>
<path d="M494.772,106.637l0.007-0.005L431.316,4.092C429.741,1.548,426.96,0,423.968,0c-2.992,0-5.773,1.548-7.347,4.094  l-63.463,102.54l0.007,0.005c-0.819,1.321-1.301,2.875-1.301,4.544V503.36c0,4.772,3.868,8.641,8.641,8.641h126.926  c4.773,0,8.641-3.869,8.641-8.641V111.181C496.072,109.511,495.591,107.958,494.772,106.637z M423.968,25.06l47.953,77.48h-95.906  l12.891-20.829h44.402c4.773,0,8.641-3.869,8.641-8.641c0-4.772-3.868-8.641-8.641-8.641h-33.706L423.968,25.06z M369.146,119.822  h22.687v374.896h-22.687V119.822z M478.79,494.718h-22.687V293.994c0-4.772-3.868-8.641-8.641-8.641  c-4.773,0-8.641,3.869-8.641,8.641v200.724h-29.705V119.822h29.705v144.796c0,4.772,3.868,8.641,8.641,8.641  c4.773,0,8.641-3.869,8.641-8.641V119.822h22.687V494.718z"/>
<g>
</g>
<g>
</g>
<g>
</g>
<g>
</g>
<g>
</g>
<g>
</g>
<g>
</g>
<g>
</g>
<g>
</g>
<g>
</g>
<g>
</g>
<g>
</g>
<g>
</g>
<g>
</g>
<g>
</g>
</svg>
