<?xml version="1.0" encoding="UTF-8" standalone="no"?>
<svg
   viewBox="0 0 640 640"
   version="1.1"
   id="svg32"
   sodipodi:docname="redaction.svg"
   width="640"
   height="640"
   inkscape:version="1.3 (0e150ed6c4, 2023-07-21)"
   xmlns:inkscape="http://www.inkscape.org/namespaces/inkscape"
   xmlns:sodipodi="http://sodipodi.sourceforge.net/DTD/sodipodi-0.dtd"
   xmlns:xlink="http://www.w3.org/1999/xlink"
   xmlns="http://www.w3.org/2000/svg"
   xmlns:svg="http://www.w3.org/2000/svg">
  <sodipodi:namedview
     id="namedview32"
     pagecolor="#ffffff"
     bordercolor="#000000"
     borderopacity="0.25"
     inkscape:showpageshadow="2"
     inkscape:pageopacity="0.0"
     inkscape:pagecheckerboard="0"
     inkscape:deskcolor="#d1d1d1"
     inkscape:zoom="1.0351563"
     inkscape:cx="361.29811"
     inkscape:cy="330.86792"
     inkscape:window-width="1920"
     inkscape:window-height="991"
     inkscape:window-x="-9"
     inkscape:window-y="-9"
     inkscape:window-maximized="1"
     inkscape:current-layer="svg32" />
  <defs
     id="defs14">
    <linearGradient
       id="a">
      <stop
         offset="0"
         id="stop1" />
      <stop
         stop-opacity="0"
         offset="1"
         id="stop2" />
    </linearGradient>
    <linearGradient
       id="d"
       x2="0"
       y1="-150.7"
       y2="327.66"
       gradientUnits="userSpaceOnUse">
      <stop
         stop-opacity="0"
         offset="0"
         id="stop3" />
      <stop
         offset=".5"
         id="stop4" />
      <stop
         stop-opacity="0"
         offset="1"
         id="stop5" />
    </linearGradient>
    <linearGradient
       id="g"
       x1="23.104"
       x2="23.077999"
       y1="35.714001"
       y2="11.819"
       gradientUnits="userSpaceOnUse">
      <stop
         stop-color="#919191"
         offset="0"
         id="stop6" />
      <stop
         stop-color="#e9e9e9"
         offset=".20232"
         id="stop7" />
      <stop
         stop-color="#f3f3f3"
         offset=".23642"
         id="stop8" />
      <stop
         stop-color="#e6e6e6"
         offset=".29892"
         id="stop9" />
      <stop
         stop-color="#f8f8f8"
         offset="1"
         id="stop10" />
    </linearGradient>
    <linearGradient
       id="f"
       x1="14.394"
       x2="14.375"
       y1="32.938"
       y2="21.688"
       gradientUnits="userSpaceOnUse">
      <stop
         stop-color="#787878"
         offset="0"
         id="stop11" />
      <stop
         stop-color="#d0d0d0"
         offset="1"
         id="stop12" />
    </linearGradient>
    <linearGradient
       id="e"
       x1="4.6806998"
       x2="40.418999"
       y1="13.835"
       y2="73.136002"
       gradientTransform="matrix(1.3105,0,0,0.76306,0.125,-1.125)"
       gradientUnits="userSpaceOnUse">
      <stop
         stop-color="#fff"
         offset="0"
         id="stop13" />
      <stop
         stop-color="#fff"
         stop-opacity="0"
         offset="1"
         id="stop14" />
    </linearGradient>
    <radialGradient
       id="b"
       cx="605.71002"
       cy="486.64999"
       r="117.14"
       gradientTransform="matrix(-2.7744,0,0,1.9697,112.76,-872.89)"
       gradientUnits="userSpaceOnUse"
       xlink:href="#a" />
    <radialGradient
       id="c"
       cx="605.71002"
       cy="486.64999"
       r="117.14"
       gradientTransform="matrix(2.7744,0,0,1.9697,-1891.6,-872.89)"
       gradientUnits="userSpaceOnUse"
       xlink:href="#a" />
  </defs>
  <g
     id="g32"
     transform="matrix(13.274222,0,0,13.274222,7.2358038,-12.80769)">
    <g
       transform="matrix(0.023745,0,0,0.020868,44.682,33.279)"
       id="g16">
      <path
         d="M -1559.3,-150.7 H -219.7 V 327.66 H -1559.3 Z"
         fill="url(#d)"
         opacity="0.40206"
         id="path14"
         style="fill:url(#d)" />
      <path
         d="m -219.62,-150.68 v 478.33 c 142.87,0.90045 345.4,-107.17 345.4,-239.2 0,-132.03 -159.44,-239.13 -345.4,-239.13 z"
         fill="url(#c)"
         opacity="0.40206"
         id="path15"
         style="fill:url(#c)" />
      <path
         d="m -1559.3,-150.68 v 478.33 c -142.87,0.90045 -345.4,-107.17 -345.4,-239.2 0,-132.03 159.44,-239.13 345.4,-239.13 z"
         fill="url(#b)"
         opacity="0.40206"
         id="path16"
         style="fill:url(#b)" />
    </g>
    <path
       d="M 6.6319,11.549 2.3793,31.036 c -0.68094,3.1202 0.80746,5.1139 2.9607,5.1139 h 37.251 c 2.1532,0 3.6555,-2.3351 2.9069,-5.0601 l -5.3831,-19.594 c -0.14827,-0.53969 -0.83666,-0.96994 -1.3996,-0.96895 l -30.684,0.05383 c -0.82713,0.0015 -1.2389,0.23275 -1.3996,0.96895 z"
       fill="url(#g)"
       fill-rule="evenodd"
       stroke="#828282"
       id="path17"
       style="fill:url(#g)" />
    <path
       d="m 36.855,13.732 h -8.3189 l 0.77611,4.5714 h 8.3846 L 36.85503,13.732 Z"
       fill-opacity="0.17544"
       fill-rule="evenodd"
       id="path18" />
    <path
       d="m 38.714,21.357 h -15"
       fill="none"
       stroke="#000000"
       stroke-linecap="round"
       stroke-opacity="0.09942"
       id="path19" />
    <path
       d="m 39.214,23.357 h -15.5"
       fill="none"
       stroke="#000000"
       stroke-linecap="round"
       stroke-opacity="0.09942"
       id="path20" />
    <path
       d="M 39.839,25.357 H 23.714"
       fill="none"
       stroke="#000000"
       stroke-linecap="round"
       stroke-opacity="0.12281"
       id="path21" />
    <path
       d="M 40.41,27.357 H 23.705"
       fill="none"
       stroke="#000000"
       stroke-linecap="round"
       stroke-opacity="0.15205"
       stroke-width="0.99128"
       id="path22" />
    <path
       d="M 41.035,29.357 H 23.706"
       fill="none"
       stroke="#000000"
       stroke-linecap="round"
       stroke-opacity="0.15205"
       stroke-width="0.99158"
       id="path23" />
    <path
       d="M 41.785,31.357 H 23.706"
       fill="none"
       stroke="#000000"
       stroke-linecap="round"
       stroke-opacity="0.15205"
       stroke-width="0.9919"
       id="path24" />
    <path
       d="M 40.853,33.357 H 23.701"
       fill="none"
       stroke="#000000"
       stroke-linecap="round"
       stroke-opacity="0.11696"
       stroke-width="0.98649"
       id="path25" />
    <text
       transform="matrix(1,0,-0.1692,1,0.5,-1.125)"
       x="11.7399"
       y="19.331921"
       font-family="'Times New Roman'"
       font-size="6.5877px"
       id="text25"><tspan
         x="11.7399"
         y="19.331921"
         id="tspan25">N</tspan></text>
    <text
       transform="matrix(1,0,-0.11463,1,0.5,-1.125)"
       x="15.44499"
       y="19.331921"
       font-family="'Times New Roman'"
       font-size="6.5877px"
       id="text26"><tspan
         x="15.44499"
         y="19.331921"
         id="tspan26">E</tspan></text>
    <text
       transform="matrix(1,0,0.05603,1,0.5,-1.125)"
       x="16.637791"
       y="19.331921"
       font-family="'Times New Roman'"
       font-size="6.5877px"
       id="text27"><tspan
         x="16.637791"
         y="19.331921"
         id="tspan27">W</tspan></text>
    <text
       transform="matrix(1,0,0.10962,1,0.5,-1.125)"
       x="21.81134"
       y="19.328711"
       font-family="'Times New Roman'"
       font-size="6.5877px"
       id="text28"><tspan
         x="21.81134"
         y="19.328711"
         id="tspan28">S</tspan></text>
    <path
       d="m 21.125,21.375 v 12 H 8.187 c -1.1319,0 -2.0625,-1.1875 -1.5,-2.875 l 1.9375,-9.125 h 12.5 z"
       fill="url(#f)"
       fill-rule="evenodd"
       stroke="#9e9e9e"
       id="path28"
       style="fill:url(#f)" />
    <path
       d="M 20.188,31.438 H 7.688"
       fill="none"
       stroke="#ffffff"
       stroke-linecap="round"
       stroke-linejoin="round"
       stroke-opacity="0.30994"
       id="path29" />
    <path
       d="M 20.188,31.437 H 7.688"
       fill="none"
       stroke="#ffffff"
       stroke-linecap="round"
       stroke-linejoin="round"
       stroke-opacity="0.30994"
       stroke-width="2.4495"
       id="path30" />
    <path
       d="M 7.433,12.29 3.4527,31.055 c -0.44137,2.0808 -0.31861,4.0863 1.9776,4.0863 h 36.693 c 2.2337,0 2.9558,-1.8465 2.178,-4.6617 l -5.0218,-18.177 c -0.13731,-0.497 -0.45829,-0.83103 -0.97691,-0.83017 l -29.83,0.04959 c -0.63701,0.0011 -0.92612,0.23356 -1.0394,0.76767 z"
       fill="none"
       stroke="url(#e)"
       stroke-width="0.98188"
       id="path31"
       style="stroke:url(#e)" />
    <path
       transform="translate(-0.15625,0.125)"
       d="m 6.21875,31.4375 a 0.96875,0.96875 0 1 1 -1.9375,0 0.96875,0.96875 0 1 1 1.9375,0 z"
       fill="#ffffff"
       fill-opacity="0.63743"
       id="path32" />
  </g>
</svg>
