<?xml version="1.0" encoding="UTF-8" standalone="no"?>
<svg
   viewBox="0 0 640 640"
   height="640"
   width="640"
   xml:space="preserve"
   id="svg2"
   version="1.1"
   sodipodi:docname="homeworks.svg"
   inkscape:version="1.3 (0e150ed6c4, 2023-07-21)"
   xmlns:inkscape="http://www.inkscape.org/namespaces/inkscape"
   xmlns:sodipodi="http://sodipodi.sourceforge.net/DTD/sodipodi-0.dtd"
   xmlns="http://www.w3.org/2000/svg"
   xmlns:svg="http://www.w3.org/2000/svg"
   xmlns:rdf="http://www.w3.org/1999/02/22-rdf-syntax-ns#"
   xmlns:cc="http://creativecommons.org/ns#"
   xmlns:dc="http://purl.org/dc/elements/1.1/"><sodipodi:namedview
     id="namedview1"
     pagecolor="#ffffff"
     bordercolor="#000000"
     borderopacity="0.25"
     inkscape:showpageshadow="2"
     inkscape:pageopacity="0.0"
     inkscape:pagecheckerboard="0"
     inkscape:deskcolor="#d1d1d1"
     inkscape:zoom="1.2036126"
     inkscape:cx="343.13367"
     inkscape:cy="324.43995"
     inkscape:window-width="1920"
     inkscape:window-height="991"
     inkscape:window-x="-9"
     inkscape:window-y="-9"
     inkscape:window-maximized="1"
     inkscape:current-layer="svg2" /><metadata
     id="metadata8"><rdf:RDF><cc:Work
         rdf:about=""><dc:format>image/svg+xml</dc:format><dc:type
           rdf:resource="http://purl.org/dc/dcmitype/StillImage" /></cc:Work></rdf:RDF></metadata><defs
     id="defs6"><clipPath
       id="clipPath104"
       clipPathUnits="userSpaceOnUse"><path
         id="path102"
         d="m 2482.51,1414.42 h -346 c -45.93,0 -83.17,37.24 -83.17,83.17 v 3609.25 h 443.24 v -565.5 h -59.04 c -4.36,0 -7.67,-0.14 -9.94,-0.43 -2.27,-0.28 -4.83,-1.17 -7.67,-2.69 -5.11,-2.65 -7.66,-9.84 -7.66,-21.58 0,-12.11 2.55,-19.49 7.66,-22.14 2.84,-1.51 5.3,-2.41 7.39,-2.69 2.07,-0.3 5.39,-0.43 9.93,-0.43 h 59.33 v -25.94 c -19.49,-14.74 -45.23,-34.1 -77.21,-58.09 -2.46,-1.89 -4.26,-4.27 -5.4,-7.1 -1.14,-2.84 -1.7,-7.95 -1.7,-15.33 0,-12.11 2.55,-19.48 7.66,-22.14 2.84,-1.51 5.3,-2.41 7.39,-2.7 2.07,-0.27 5.39,-0.42 9.93,-0.42 h 59.33 v -18.95 c -3.14,0.33 -6.35,0.5 -9.65,0.5 -15.14,0 -28.72,-4.01 -40.74,-12.06 -12.02,-8.05 -21.1,-17.93 -27.25,-29.67 -6.15,-11.73 -9.22,-23.85 -9.22,-36.34 0,-12.48 2.88,-24.54 8.65,-36.19 5.77,-11.64 14.76,-21.52 26.97,-29.67 12.21,-8.13 26.16,-12.2 41.87,-12.2 3.2,0 6.33,0.16 9.37,0.47 v -33.68 h -25.83 c -21.2,0 -36.24,-5.11 -45.14,-15.34 -8.9,-10.21 -13.34,-25.16 -13.34,-44.85 0,-4.15 0.14,-7.33 0.43,-9.5 0.28,-2.18 1.09,-4.69 2.41,-7.53 2.65,-5.3 9.93,-7.95 21.86,-7.95 10.22,0 16.56,2.18 19.02,6.53 1.51,2.66 2.41,5.16 2.69,7.52 0.29,2.37 0.43,5.78 0.43,10.23 0,4.44 1.14,7.48 3.4,9.08 2.27,1.61 5.96,2.41 11.07,2.41 h 23 v -49.61 c -3.3,0.33 -6.71,0.5 -10.22,0.5 -18.92,0 -36.05,-5.96 -51.38,-17.88 -7.95,-6.05 -14.33,-14.52 -19.16,-25.41 -4.83,-10.88 -7.24,-23.31 -7.24,-37.33 0,-40.31 8.42,-60.46 25.26,-60.46 3.59,0 7.95,1.24 13.06,3.69 8.52,4.35 12.78,9.56 12.78,15.61 0,3.03 -1.05,6.82 -3.13,11.36 l -1.13,3.12 c -2.27,6.25 -3.41,14.86 -3.41,25.84 0,6.24 1.8,12.48 5.4,18.73 3.59,6.25 8.04,9.36 13.34,9.36 v -67.28 c 0,-6.98 2.79,-13.37 8.37,-19.16 4.15,-4.28 9.97,-6.97 17.46,-8.08 v -19.02 h -59.04 c -4.36,0 -7.63,-0.14 -9.8,-0.44 -2.18,-0.28 -4.68,-1.08 -7.52,-2.4 -5.11,-2.65 -7.66,-9.94 -7.66,-21.86 0,-14.77 4.63,-22.89 13.91,-24.42 -9.09,-6.81 -13.64,-18.26 -13.64,-34.34 0,-16.09 7.44,-31.14 22.29,-45.14 14.85,-14 32.17,-21 51.95,-21 3.23,0 6.4,0.19 9.51,0.56 v -15.27 c -3.14,0.34 -6.35,0.5 -9.65,0.5 -15.14,0 -28.72,-4.01 -40.74,-12.05 -12.02,-8.05 -21.1,-17.93 -27.25,-29.67 -6.15,-11.73 -9.22,-23.85 -9.22,-36.34 0,-12.49 2.88,-24.55 8.65,-36.19 5.77,-11.63 14.76,-21.52 26.97,-29.66 12.21,-8.14 26.16,-12.22 41.87,-12.22 3.2,0 6.33,0.16 9.37,0.47 v -15.16 c -3.14,0.34 -6.35,0.51 -9.65,0.51 -15.14,0 -28.72,-4.02 -40.74,-12.06 -12.02,-8.06 -21.1,-17.94 -27.25,-29.67 -6.15,-11.73 -9.22,-23.85 -9.22,-36.34 0,-12.49 2.88,-24.55 8.65,-36.19 5.77,-11.65 14.76,-21.54 26.97,-29.67 12.21,-8.14 26.16,-12.21 41.87,-12.21 3.2,0 6.33,0.16 9.37,0.47 v -18.92 h -59.33 c -4.35,0 -7.62,-0.13 -9.79,-0.41 -2.18,-0.29 -4.69,-1.09 -7.53,-2.42 -5.11,-2.65 -7.66,-9.94 -7.66,-21.86 0,-12.1 2.46,-19.4 7.38,-21.86 2.84,-1.51 5.34,-2.41 7.52,-2.69 2.17,-0.29 5.44,-0.43 9.8,-0.43 h 21.85 c -3.78,-4.73 -10.17,-11.63 -19.16,-20.73 -8.99,-9.08 -15.28,-15.79 -18.88,-20.15 l -1.98,-2.83 c -5.49,-7.39 -8.23,-13.16 -8.23,-17.32 0,-4.92 3.97,-10.6 11.92,-17.03 7.76,-5.87 13.91,-8.81 18.45,-8.81 1.89,0 3.87,0.62 5.96,1.85 2.08,1.23 5.11,4.22 9.09,8.94 l 31.22,37.76 9.37,-11.05 v -791.92 c -14.61,-18.59 -23.32,-42.04 -23.32,-67.52 v -128.99 c -125.27,-11.75 -223.29,-117.19 -223.29,-245.52 0,-128.34 98.02,-233.78 223.29,-245.53 v -340.71 0 c 0,-15.68 3.3,-30.6 9.25,-44.09 m 14.07,4456.23 h -443.26 l 0.02,421.4 c 0,45.93 37.24,83.16 83.17,83.16 h 360.07 v -504.56" /></clipPath></defs><g
     id="g1"
     transform="matrix(0.53666363,0,0,0.53666363,-36.408158,-128.3893)"><path
       id="path18"
       style="fill:#f9d17f;fill-opacity:1;fill-rule:nonzero;stroke:none;stroke-width:0.133333"
       d="m 1259.0163,1270.5108 c 0,12.0734 -244.7253,21.8614 -546.60795,21.8614 -301.88266,0 -546.60666,-9.788 -546.60666,-21.8614 0,-12.0733 244.724,-21.8613 546.60666,-21.8613 301.88265,0 546.60795,9.788 546.60795,21.8613" /><path
       id="path20"
       style="fill:#fef5d7;fill-opacity:1;fill-rule:nonzero;stroke:none;stroke-width:0.133333"
       d="m 167.48036,1183.7695 c -13.236,-46.3387 0.644,-96.9867 25.94667,-138.0013 25.30266,-41.0147 61.11599,-74.27469 95.93866,-107.58802 34.82267,-33.31467 69.64267,-67.93733 92.156,-110.54666 52.35466,-99.084 29.99866,-224.096 78.788,-324.98266 25.87066,-53.49467 72.52933,-97.73867 129.20399,-115.596 56.676,-17.85867 122.74267,-7.21467 167.712,31.62667 100.03466,86.40133 67.50133,266.45732 169.03599,351.08799 35.26134,29.38933 81.13203,41.788 123.61063,59.18666 42.4774,17.39734 85.7214,43.932 101.3414,87.096 25.5773,70.68133 -33.392,153.69062 -1.7467,221.87202 15.304,32.9706 51.1013,63.904 38.104,97.8493 -11.3733,29.7027 -50.9267,34.0027 -82.7267,33.4 -178.11063,-3.3693 -356.21995,-6.7387 -534.33062,-10.1067 -87.49066,-1.656 -175.84266,-7.1013 -263.31332,-4.9866 -28.47067,0.688 -50.30534,13.8066 -78.21733,1.4893 -29.556,-13.0453 -52.67734,-40.9053 -61.50267,-71.8" /><path
       id="path22"
       style="fill:#362b6c;fill-opacity:1;fill-rule:nonzero;stroke:none;stroke-width:0.133333"
       d="m 213.54303,1020.6948 c -3.77334,0.56 -7.58667,1.1467 -11.44,1.7734 L 75.716629,656.01485 C 180.47636,744.56152 236.43636,885.46818 213.54303,1020.6948" /><path
       id="path24"
       style="fill:#362b6c;fill-opacity:1;fill-rule:nonzero;stroke:none;stroke-width:0.133333"
       d="m 340.75636,1035.0948 c -23.892,4.1734 -47.16,7.7867 -70.56,9.12 l 35.98666,-600.39994 c 77,185.83999 89.38667,397.73332 34.57334,591.27994" /><path
       id="path26"
       style="fill:#7a53af;fill-opacity:1;fill-rule:nonzero;stroke:none;stroke-width:0.133333"
       d="m 306.18302,443.81486 -35.98666,600.39994 c -18.04,1.04 -36.14667,0.7334 -54.68,-1.68 -52.02667,-200.81328 -18.48,-422.31995 90.66666,-598.71994" /><path
       id="path28"
       style="fill:#7a53af;fill-opacity:1;fill-rule:nonzero;stroke:none;stroke-width:0.133333"
       d="m 202.10303,1022.4682 c -16.04,2.5733 -32.6,5.5466 -48.30667,7.8666 C 81.129562,921.76151 52.530097,784.58818 75.716629,656.01485 L 202.10303,1022.4682" /><path
       id="path30"
       style="fill:#362b6c;fill-opacity:1;fill-rule:nonzero;stroke:none;stroke-width:0.133333"
       d="m 346.45502,1020.6948 c 3.77334,0.56 7.58667,1.1454 11.44,1.7747 l 126.388,-366.45465 c -104.76133,88.54667 -160.72133,229.45466 -137.828,364.67995" /><path
       id="path32"
       style="fill:#7a53af;fill-opacity:1;fill-rule:nonzero;stroke:none;stroke-width:0.133333"
       d="m 357.89502,1022.4695 c 16.04,2.572 32.60133,5.5453 48.30667,7.8653 72.668,-108.57329 101.268,-245.74662 78.08133,-374.31995 l -126.388,366.45465" /><path
       id="path34"
       style="fill:#f36725;fill-opacity:1;fill-rule:nonzero;stroke:none;stroke-width:0.133333"
       d="M 429.53102,1265.9575 H 137.02036 l -20.46,-236.2733 h 333.42933 l -20.45867,236.2733" /><path
       id="path36"
       style="fill:#f6872d;fill-opacity:1;fill-rule:nonzero;stroke:none;stroke-width:0.133333"
       d="M 102.5937,1058.8748 H 463.95769 V 1009.979 H 102.5937 Z" /><path
       id="path38"
       style="fill:#eb5a28;fill-opacity:1;fill-rule:nonzero;stroke:none;stroke-width:0.133333"
       d="m 119.10303,1059.0468 3.26,37.632 318.39866,39.5854 6.89733,-79.66 -328.55599,2.4426" /><path
       id="path40"
       style="fill:#eb5a28;fill-opacity:1;fill-rule:nonzero;stroke:none;stroke-width:0.133333"
       d="m 184.57769,1147.8042 c 0,8.1333 -6.59466,14.7266 -14.728,14.7266 -8.13333,0 -14.728,-6.5933 -14.728,-14.7266 0,-8.1334 6.59467,-14.728 14.728,-14.728 8.13334,0 14.728,6.5946 14.728,14.728" /><path
       id="path42"
       style="fill:#eb5a28;fill-opacity:1;fill-rule:nonzero;stroke:none;stroke-width:0.133333"
       d="m 157.12436,1195.1268 c 0,2.9787 -2.41467,5.392 -5.39333,5.392 -2.97867,0 -5.392,-2.4133 -5.392,-5.392 0,-2.9786 2.41333,-5.3933 5.392,-5.3933 2.97866,0 5.39333,2.4147 5.39333,5.3933" /><path
       id="path44"
       style="fill:#f8c139;fill-opacity:1;fill-rule:nonzero;stroke:none;stroke-width:0.133333"
       d="m 965.40301,1080.2895 h 65.26829 V 892.43885 h -65.26829 z" /><path
       id="path46"
       style="fill:#f9a62d;fill-opacity:1;fill-rule:nonzero;stroke:none;stroke-width:0.133333"
       d="m 965.40301,899.63751 v 11.09867 c 0,0 65.26669,18.06 65.26669,17.34533 0,-0.712 0,-28.444 0,-28.444 h -65.26669" /><path
       id="path48"
       style="fill:#f8c139;fill-opacity:1;fill-rule:nonzero;stroke:none;stroke-width:0.133333"
       d="m 1052.143,879.02418 v 0.21467 c 0,11.26666 -9.1333,20.39866 -20.4,20.39866 h -67.41199 c -11.268,0 -20.40134,-9.132 -20.40134,-20.39866 v -9.22667 c 19.14667,5.05333 62.82663,14.37333 108.21333,9.012" /><path
       id="path50"
       style="fill:#f9a62d;fill-opacity:1;fill-rule:nonzero;stroke:none;stroke-width:0.133333"
       d="m 1052.143,823.21085 v 55.81333 c -45.3867,5.36133 -89.06666,-3.95867 -108.21333,-9.012 V 823.21085 H 1052.143" /><path
       id="path52"
       style="fill:#f9a62d;fill-opacity:1;fill-rule:nonzero;stroke:none;stroke-width:0.133333"
       d="m 769.10835,703.73219 v 33.36533 c 0,18.748 15.25199,34 33.99999,34 h 71 v -67.36533 z m 118.99999,95.36533 h -85 c -34.18799,0 -61.99999,-27.812 -61.99999,-62 v -35.80133 c 0,-14.096 11.468,-25.564 25.564,-25.564 h 121.43599 c 7.732,0 14,6.268 14,14 v 95.36533 c 0,7.732 -6.268,14 -14,14" /><path
       id="path54"
       style="fill:#f9a62d;fill-opacity:1;fill-rule:nonzero;stroke:none;stroke-width:0.133333"
       d="m 1127.395,703.73219 v 67.36533 h 71 c 18.748,0 34,-15.252 34,-34 v -33.36533 z m -28,81.36533 v -95.36533 c 0,-7.732 6.2693,-14 14,-14 h 121.4373 c 14.096,0 25.5627,11.468 25.5627,25.564 v 35.80133 c 0,34.188 -27.812,62 -62,62 h -85 c -7.7307,0 -14,-6.268 -14,-14" /><path
       id="path56"
       style="fill:#f8c139;fill-opacity:1;fill-rule:nonzero;stroke:none;stroke-width:0.133333"
       d="m 998.03367,865.80151 h -10e-4 c -102.97466,0 -186.452,-83.47733 -186.452,-186.45332 v -70.32 H 1184.487 v 70.32 c 0,102.97599 -83.4787,186.45332 -186.45333,186.45332" /><path
       id="path58"
       style="fill:#f8c139;fill-opacity:1;fill-rule:nonzero;stroke:none;stroke-width:0.133333"
       d="M 1190.4337,640.11219 H 805.63234 c -17.16666,0 -31.08399,-13.91734 -31.08399,-31.084 0,-17.168 13.91733,-31.08533 31.08399,-31.08533 h 384.80136 c 17.168,0 31.0853,13.91733 31.0853,31.08533 0,17.16666 -13.9173,31.084 -31.0853,31.084" /><path
       id="path60"
       style="fill:#ffffff;fill-opacity:1;fill-rule:nonzero;stroke:none;stroke-width:0.133333"
       d="m 1001.8857,688.61219 c 2.4733,-2.472 5.16,-3.70934 8.0626,-3.70934 2.9,0 5.1587,0.23867 6.7774,0.71334 1.6173,0.47733 2.8546,1.02266 3.7106,1.64133 0.856,0.62 1.52,1.64133 1.9987,3.068 0.4747,1.61867 0.7133,4.13733 0.7133,7.56267 v 79.48133 c 0,2.19066 -0.072,3.83066 -0.2146,4.924 -0.1427,1.09466 -0.596,2.35333 -1.356,3.78 -1.332,2.56933 -5.044,3.85333 -11.1307,3.85333 -5.8987,0 -9.56,-1.23467 -10.98666,-3.70933 -0.76267,-1.42667 -1.21333,-2.73467 -1.356,-3.924 -0.14267,-1.18934 -0.21467,-2.92667 -0.21467,-5.20934 v -50.94266 l -1.85466,1.712 c -3.90134,2.95066 -7.23067,4.424 -9.988,4.424 -2.76134,0 -5.63734,-1.66267 -8.63334,-4.99334 -2.99733,-3.32933 -4.49466,-6.27866 -4.49466,-8.84799 0,-2.568 1.712,-5.37334 5.136,-8.41867 l 23.40269,-21.11867 0.428,-0.28666" /><path
       id="path62"
       style="fill:#f9a62d;fill-opacity:1;fill-rule:nonzero;stroke:none;stroke-width:0.133333"
       d="m 811.58034,640.11219 v 20.08933 l 372.73066,27.11067 v -47.2 H 811.58034" /><path
       id="path64"
       style="fill:#f8c139;fill-opacity:1;fill-rule:nonzero;stroke:none;stroke-width:0.133333"
       d="M 1115.499,1126.8948 H 880.57368 v -18.948 c 0,-15.2733 12.38133,-27.6573 27.656,-27.6573 h 179.61462 c 15.2734,0 27.6547,12.384 27.6547,27.6573 v 18.948" /><path
       id="path66"
       style="fill:#e7e7e6;fill-opacity:1;fill-rule:nonzero;stroke:none;stroke-width:0.133333"
       d="m 1141.0097,1142.9842 v 14.4146 c 0,1.2267 -0.1334,2.4267 -0.4,3.5854 -1.6267,7.16 -8.04,12.508 -15.6934,12.508 H 871.15634 c -7.65333,0 -14.06666,-5.348 -15.69333,-12.508 -0.26667,-1.1587 -0.4,-2.3587 -0.4,-3.5854 v -14.4146 c 0,-8.8787 7.2,-16.092 16.09333,-16.092 h 253.75996 c 8.8934,0 16.0934,7.2133 16.0934,16.092" /><path
       id="path68"
       style="fill:#f9a62d;fill-opacity:1;fill-rule:nonzero;stroke:none;stroke-width:0.133333"
       d="M 1115.499,1114.3788 H 880.57368 v 12.516 H 1115.499 v -12.516" /><path
       id="path70"
       style="fill:#bebdbb;fill-opacity:1;fill-rule:nonzero;stroke:none;stroke-width:0.133333"
       d="m 1140.6097,1160.9842 c -1.6267,7.16 -8.04,12.508 -15.6934,12.508 H 871.15634 c -7.65333,0 -14.06666,-5.348 -15.69333,-12.508 h 285.14669" /><path
       id="path72"
       style="fill:#f9a62d;fill-opacity:1;fill-rule:nonzero;stroke:none;stroke-width:0.133333"
       d="m 1148.9443,732.74418 c 0,7.96534 -6.4573,14.424 -14.4226,14.424 -7.9667,0 -14.4227,-6.45866 -14.4227,-14.424 0,-7.96533 6.456,-14.42266 14.4227,-14.42266 7.9653,0 14.4226,6.45733 14.4226,14.42266" /><path
       id="path74"
       style="fill:#f9a62d;fill-opacity:1;fill-rule:nonzero;stroke:none;stroke-width:0.133333"
       d="m 1118.0457,770.99885 c 0,2.49467 -2.0227,4.51867 -4.5187,4.51867 -2.4947,0 -4.5173,-2.024 -4.5173,-4.51867 0,-2.496 2.0226,-4.51867 4.5173,-4.51867 2.496,0 4.5187,2.02267 4.5187,4.51867" /><path
       id="path76"
       style="fill:#e03a32;fill-opacity:1;fill-rule:nonzero;stroke:none;stroke-width:0.133333"
       d="m 361.90569,1265.9562 h -97.40133 c -6.124,0 -11.08934,-4.9654 -11.08934,-11.0894 V 615.60552 c 0,-6.124 4.96534,-11.088 11.08934,-11.088 h 97.40133 c 6.124,0 11.08933,4.964 11.08933,11.088 v 639.26128 c 0,6.124 -4.96533,11.0894 -11.08933,11.0894" /><path
       id="path78"
       style="fill:#f9a62d;fill-opacity:1;fill-rule:nonzero;stroke:none;stroke-width:0.133333"
       d="M 253.41236,773.63352 H 372.99622 V 671.79232 H 253.41236 Z" /><path
       id="path80"
       style="fill:#ffffff;fill-opacity:1;fill-rule:nonzero;stroke:none;stroke-width:0.133333"
       d="m 327.86169,866.95485 c 0.44133,0.24 0.73867,0.6 0.89067,1.07866 0.15066,0.47867 0.22666,1.08 0.22666,1.79867 0,0.71867 -0.064,1.29867 -0.18933,1.74133 -0.12667,0.44134 -0.27867,0.76934 -0.45467,0.984 -0.176,0.21334 -0.44133,0.372 -0.79466,0.472 -0.404,0.15334 -1.048,0.228 -1.93067,0.228 h -21.00667 c -0.60533,0 -1.048,-0.02 -1.324,-0.056 -0.27866,-0.0387 -0.60666,-0.15866 -0.98533,-0.36 -0.68133,-0.35466 -1.02133,-1.33733 -1.02133,-2.952 0,-0.984 0.0747,-1.66533 0.22666,-2.044 0.152,-0.37733 0.392,-0.69466 0.72,-0.94666 7.56934,-5.67734 12.51467,-9.412 14.836,-11.204 h -12.452 c -0.60533,0 -1.048,-0.0173 -1.324,-0.0573 -0.27866,-0.0373 -0.60666,-0.15733 -0.98533,-0.35866 -0.68133,-0.35334 -1.02133,-1.33733 -1.02133,-2.952 0,-1.56533 0.34,-2.524 1.02133,-2.87733 0.37867,-0.20267 0.72,-0.32134 1.02267,-0.35867 0.30266,-0.0387 0.744,-0.0573 1.32533,-0.0573 h 21.12 c 0.95733,0 1.65867,0.12 2.1,0.36 0.44133,0.23866 0.73867,0.59866 0.89067,1.07733 0.15066,0.48133 0.22666,1.09867 0.22666,1.856 0,0.756 -0.0707,1.356 -0.208,1.79733 -0.14,0.44267 -0.29733,0.75067 -0.47333,0.928 -0.076,0.1 -0.404,0.39067 -0.984,0.86933 -7.24267,5.324 -12.024,8.88267 -14.34533,10.67467 h 12.79333 c 0.95733,0 1.65867,0.11867 2.1,0.35867" /><path
       id="path82"
       style="fill:#ffffff;fill-opacity:1;fill-rule:nonzero;stroke:none;stroke-width:0.133333"
       d="m 308.52036,883.62818 c -0.61867,0.80667 -0.92667,1.62667 -0.92667,2.46 0,0.832 0.31467,1.66533 0.94533,2.49733 0.63067,0.83334 1.56534,1.24934 2.80134,1.24934 1.236,0 2.15733,-0.39067 2.76266,-1.17334 0.60667,-0.78266 0.90934,-1.628 0.90934,-2.53466 0,-0.90934 -0.316,-1.756 -0.94667,-2.53734 -0.63067,-0.78266 -1.55733,-1.17333 -2.78267,-1.17333 -1.224,0 -2.14533,0.404 -2.76266,1.212 m 10.2,-4.732 c 1.96933,2.12133 2.95333,4.54267 2.95333,7.268 0,2.72533 -0.97867,5.13467 -2.93333,7.22933 -1.956,2.09334 -4.448,3.14134 -7.476,3.14134 -2.09467,0 -3.95467,-0.54267 -5.58267,-1.62667 -1.628,-1.08667 -2.82667,-2.404 -3.596,-3.956 -0.76933,-1.55333 -1.15333,-3.16133 -1.15333,-4.82533 0,-1.66534 0.40933,-3.28134 1.22933,-4.84534 0.82,-1.56533 2.03067,-2.88266 3.63333,-3.956 1.60267,-1.07333 3.41334,-1.608 5.432,-1.608 3.028,0 5.52534,1.06 7.49334,3.17867" /><path
       id="path84"
       style="fill:#ffffff;fill-opacity:1;fill-rule:nonzero;stroke:none;stroke-width:0.133333"
       d="m 314.52036,910.00951 0.15066,-2.46 h -5.224 c -0.68133,0 -1.17333,0.10667 -1.476,0.32134 -0.30133,0.21333 -0.45333,0.61866 -0.45333,1.21066 0,0.59334 -0.0187,1.048 -0.0573,1.364 -0.0373,0.31467 -0.15734,0.648 -0.35867,1.00267 -0.328,0.58 -1.17333,0.87067 -2.536,0.87067 -1.59067,0 -2.56133,-0.35334 -2.91467,-1.06 -0.176,-0.37867 -0.284,-0.71334 -0.32133,-1.004 -0.0387,-0.28934 -0.0573,-0.71334 -0.0573,-1.26667 0,-2.62533 0.592,-4.61867 1.77866,-5.98 1.18667,-1.364 3.192,-2.04533 6.01867,-2.04533 h 5.60133 c -0.076,-0.47867 -0.11333,-0.99734 -0.11333,-1.552 0,-0.556 0.21467,-1.01467 0.64267,-1.38134 0.42933,-0.36533 1.16133,-0.548 2.196,-0.548 1.03466,0 1.78533,0.0627 2.252,0.18934 0.46666,0.124 0.80133,0.30133 1.00266,0.52933 0.328,0.404 0.492,0.908 0.492,1.51467 l -0.152,1.248 h 3.9 c 0.58,0 1.008,0.0187 1.28667,0.0573 0.27733,0.0387 0.58,0.15733 0.908,0.36 0.63067,0.32667 0.94667,1.29867 0.94667,2.91467 0,1.71466 -0.468,2.736 -1.4,3.064 -0.40534,0.12666 -1.048,0.19066 -1.93067,0.19066 h -3.71067 c 0.10134,1.10934 0.152,1.94934 0.152,2.51734 0,0.56666 -0.0187,0.996 -0.056,1.28666 -0.0373,0.28934 -0.15866,0.624 -0.36,1.00134 -0.328,0.65866 -1.3,0.98533 -2.91466,0.98533 -1.58934,0 -2.56134,-0.34 -2.91467,-1.02133 -0.176,-0.37867 -0.284,-0.71334 -0.32133,-1.004 -0.0373,-0.28934 -0.056,-0.72534 -0.056,-1.30534" /><path
       id="path86"
       style="fill:#ffffff;fill-opacity:1;fill-rule:nonzero;stroke:none;stroke-width:0.133333"
       d="m 312.51369,925.90551 c 0,0.95867 0.404,1.44 1.21067,1.44 0.58,0 1.048,-0.22133 1.40133,-0.664 0.35333,-0.44 0.52933,-1.072 0.52933,-1.89333 0,-0.81867 -0.33466,-1.63333 -1.00266,-2.43867 -0.66934,-0.80933 -1.38267,-1.21333 -2.13867,-1.21333 v 4.76933 m 1.11733,7.98667 c -1.55333,0 -2.70133,-0.384 -3.44533,-1.15333 -0.744,-0.772 -1.116,-1.624 -1.116,-2.55467 v -8.97067 c -0.70667,0 -1.3,0.41467 -1.77867,1.248 -0.48,0.83334 -0.72,1.66534 -0.72,2.49734 0,1.464 0.152,2.612 0.45467,3.44533 l 0.15067,0.416 c 0.27733,0.60533 0.41733,1.11067 0.41733,1.51467 0,0.80666 -0.568,1.50133 -1.704,2.08133 -0.68133,0.32667 -1.26267,0.492 -1.74133,0.492 -2.24534,0 -3.368,-2.68667 -3.368,-8.06133 0,-1.86934 0.32133,-3.52667 0.96533,-4.97734 0.644,-1.452 1.49467,-2.58133 2.55467,-3.388 2.044,-1.58933 4.328,-2.384 6.85066,-2.384 3.17867,0 5.72134,1.028 7.62667,3.084 1.90533,2.05734 2.85733,4.624 2.85733,7.70267 0,3.508 -1.236,6.08133 -3.70933,7.72133 -1.31067,0.85867 -2.744,1.28667 -4.29467,1.28667" /><path
       id="path88"
       style="fill:#ffffff;fill-opacity:1;fill-rule:nonzero;stroke:none;stroke-width:0.133333"
       d="m 308.95636,943.98018 c -0.68267,0.61733 -1.02267,1.39333 -1.02267,2.32667 0,0.93466 0.34,1.728 1.02267,2.384 0.68133,0.65733 1.43733,0.98533 2.27066,0.98533 0.83334,0 1.596,-0.30267 2.28934,-0.908 0.69466,-0.60667 1.04133,-1.41467 1.04133,-2.42267 0,-1.00933 -0.35333,-1.81066 -1.06,-2.404 -0.70667,-0.592 -1.46933,-0.88933 -2.28933,-0.88933 -0.82,0 -1.57067,0.308 -2.252,0.928 m 12.22533,3.312 c 0,2.24533 -0.99733,4.308 -2.99067,6.188 -1.99333,1.88 -4.308,2.81867 -6.94533,2.81867 -2.63733,0 -4.94667,-0.93334 -6.92667,-2.8 -1.98,-1.86667 -2.972,-3.87334 -2.972,-6.01867 0,-2.144 0.60667,-3.67067 1.81867,-4.57867 -1.23733,-0.204 -1.85467,-1.28666 -1.85467,-3.256 0,-1.58933 0.34,-2.56133 1.02134,-2.91466 0.37866,-0.176 0.712,-0.28267 1.00266,-0.32 0.28934,-0.04 0.72534,-0.0587 1.30667,-0.0587 h 22.596 c 0.58,0 1.01467,0.0187 1.30533,0.0587 0.29067,0.0373 0.61067,0.144 0.96534,0.32 0.68133,0.35333 1.02133,1.33866 1.02133,2.952 0,1.59066 -0.34,2.548 -1.02133,2.876 -0.37867,0.20266 -0.71334,0.32266 -1.00267,0.36133 -0.29067,0.036 -0.72667,0.056 -1.30667,0.056 h -7.872 c 1.236,1.00933 1.85467,2.44667 1.85467,4.316" /><path
       id="path90"
       style="fill:#ffffff;fill-opacity:1;fill-rule:nonzero;stroke:none;stroke-width:0.133333"
       d="m 308.52036,966.10285 c -0.61867,0.80666 -0.92667,1.628 -0.92667,2.46 0,0.83333 0.31467,1.66666 0.94533,2.49866 0.63067,0.83334 1.56534,1.248 2.80134,1.248 1.236,0 2.15733,-0.39066 2.76266,-1.17333 0.60667,-0.78267 0.90934,-1.628 0.90934,-2.53467 0,-0.90933 -0.316,-1.75466 -0.94667,-2.536 -0.63067,-0.784 -1.55733,-1.17333 -2.78267,-1.17333 -1.224,0 -2.14533,0.404 -2.76266,1.21067 m 10.2,-4.73067 c 1.96933,2.12 2.95333,4.54133 2.95333,7.26667 0,2.72533 -0.97867,5.13466 -2.93333,7.22933 -1.956,2.09467 -4.448,3.14267 -7.476,3.14267 -2.09467,0 -3.95467,-0.544 -5.58267,-1.62934 -1.628,-1.08533 -2.82667,-2.404 -3.596,-3.95466 -0.76933,-1.552 -1.15333,-3.16 -1.15333,-4.82534 0,-1.66533 0.40933,-3.28133 1.22933,-4.84533 0.82,-1.56533 2.03067,-2.88267 3.63333,-3.956 1.60267,-1.072 3.41334,-1.60667 5.432,-1.60667 3.028,0 5.52534,1.05867 7.49334,3.17867" /><path
       id="path92"
       style="fill:#ffffff;fill-opacity:1;fill-rule:nonzero;stroke:none;stroke-width:0.133333"
       d="m 308.52036,988.81218 c -0.61867,0.808 -0.92667,1.628 -0.92667,2.46133 0,0.832 0.31467,1.66533 0.94533,2.49733 0.63067,0.83334 1.56534,1.24934 2.80134,1.24934 1.236,0 2.15733,-0.39067 2.76266,-1.172 0.60667,-0.78267 0.90934,-1.62934 0.90934,-2.53734 0,-0.908 -0.316,-1.75466 -0.94667,-2.536 -0.63067,-0.78266 -1.55733,-1.17333 -2.78267,-1.17333 -1.224,0 -2.14533,0.40267 -2.76266,1.21067 m 10.2,-4.73067 c 1.96933,2.12 2.95333,4.54267 2.95333,7.268 0,2.724 -0.97867,5.13333 -2.93333,7.228 -1.956,2.09599 -4.448,3.14269 -7.476,3.14269 -2.09467,0 -3.95467,-0.5427 -5.58267,-1.628 -1.628,-1.08402 -2.82667,-2.40269 -3.596,-3.95602 -0.76933,-1.552 -1.15333,-3.16 -1.15333,-4.82534 0,-1.66533 0.40933,-3.28133 1.22933,-4.84533 0.82,-1.564 2.03067,-2.88133 3.63333,-3.956 1.60267,-1.072 3.41334,-1.608 5.432,-1.608 3.028,0 5.52534,1.06 7.49334,3.18" /><path
       id="path94"
       style="fill:#ffffff;fill-opacity:1;fill-rule:nonzero;stroke:none;stroke-width:0.133333"
       d="m 311.26436,1015.9122 -4.16267,5.0346 c -0.53067,0.6294 -0.93467,1.028 -1.212,1.192 -0.27867,0.164 -0.54267,0.2467 -0.79467,0.2467 -0.60533,0 -1.42533,-0.392 -2.46,-1.1747 -1.06,-0.8573 -1.58933,-1.6146 -1.58933,-2.2706 0,-0.5547 0.36533,-1.324 1.09733,-2.3094 l 0.264,-0.3773 c 0.48,-0.5813 1.31867,-1.476 2.51734,-2.6867 1.19866,-1.2133 2.05066,-2.1333 2.55466,-2.764 h -2.91333 c -0.58133,0 -1.01733,-0.019 -1.30667,-0.057 -0.29066,-0.037 -0.624,-0.1573 -1.00266,-0.3587 -0.656,-0.328 -0.984,-1.3013 -0.984,-2.9146 0,-1.5894 0.34,-2.5614 1.02133,-2.9147 0.37867,-0.1773 0.71333,-0.284 1.004,-0.3227 0.28933,-0.037 0.72533,-0.055 1.30533,-0.055 h 22.67334 c 0.57866,0 1.01466,0.017 1.304,0.055 0.29066,0.039 0.62533,0.1454 1.004,0.3227 0.68133,0.3533 1.02266,1.3373 1.02266,2.9533 0,1.2107 -0.21466,2.068 -0.644,2.572 -0.35333,0.4294 -0.90933,0.6574 -1.66533,0.6827 -0.228,0.025 -0.58133,0.037 -1.06,0.037 h -11.99867 c 0.37867,0.4547 1.02134,1.1414 1.92934,2.0627 0.90933,0.9213 1.552,1.608 1.93066,2.0627 l 0.304,0.4546 c 0.68,0.8827 1.02134,1.6387 1.02134,2.2707 0,0.6307 -0.51067,1.356 -1.53334,2.1773 -1.02133,0.8187 -1.82266,1.2294 -2.40266,1.2294 -0.58134,0 -1.26267,-0.468 -2.044,-1.4 l -3.18,-3.748" /><path
       id="path96"
       style="fill:#f9a62d;fill-opacity:1;fill-rule:nonzero;stroke:none;stroke-width:0.133333"
       d="m 312.51369,1214.7948 c 18.16,0 32.88133,-14.7213 32.88133,-32.8826 0,-18.16 -14.72133,-32.8814 -32.88133,-32.8814 -18.16,0 -32.88133,14.7214 -32.88133,32.8814 0,18.1613 14.72133,32.8826 32.88133,32.8826" /><g
       id="g98"
       transform="matrix(0.13333333,0,0,-0.13333333,-20.363635,1454.5455)"><g
         clip-path="url(#clipPath104)"
         id="g100"><path
           id="path106"
           style="fill:#ca352d;fill-opacity:1;fill-rule:nonzero;stroke:none"
           d="m 2053.32,1414.42 h 443.262 V 6375.21 H 2053.32 Z" /></g></g><path
       id="path108"
       style="fill:#e09628;fill-opacity:1;fill-rule:nonzero;stroke:none;stroke-width:0.133333"
       d="m 312.51369,773.63352 h -59.10133 l 0.003,-101.84133 h 59.09867 v 101.84133" /><path
       id="path110"
       style="fill:#ca352d;fill-opacity:1;fill-rule:nonzero;stroke:none;stroke-width:0.133333"
       d="m 311.22702,949.67618 c -0.83333,0 -1.58933,-0.328 -2.27066,-0.98533 -0.68267,-0.656 -1.02267,-1.44934 -1.02267,-2.384 0,-0.93334 0.34,-1.70934 1.02267,-2.32667 0.68133,-0.62 1.432,-0.928 2.252,-0.928 0.452,0 0.88666,0.0907 1.30533,0.27067 v 6.08933 c -0.40933,0.176 -0.83733,0.264 -1.28667,0.264 m 0.11334,-59.84133 c -1.236,0 -2.17067,-0.416 -2.80134,-1.24934 -0.63066,-0.832 -0.94533,-1.66533 -0.94533,-2.49733 0,-0.83333 0.308,-1.65333 0.92667,-2.46 0.61733,-0.808 1.53866,-1.212 2.76266,-1.212 0.45067,0 0.86,0.0533 1.23067,0.15867 v 7.11866 c -0.35333,0.0933 -0.744,0.14134 -1.17333,0.14134" /><path
       id="path112"
       style="fill:#e9e8e7;fill-opacity:1;fill-rule:nonzero;stroke:none;stroke-width:0.133333"
       d="m 312.51369,873.25751 h -7.91067 c -0.60533,0 -1.048,-0.02 -1.324,-0.056 -0.27866,-0.0387 -0.60666,-0.15866 -0.98533,-0.36 -0.68133,-0.35466 -1.02133,-1.33733 -1.02133,-2.952 0,-0.984 0.0747,-1.66533 0.22666,-2.044 0.152,-0.37733 0.392,-0.69466 0.72,-0.94666 4.264,-3.19867 7.696,-5.78 10.29467,-7.74534 v 14.104 m 0,-17.56266 h -7.91067 c -0.60533,0 -1.048,-0.0173 -1.324,-0.0573 -0.27866,-0.0373 -0.60666,-0.15733 -0.98533,-0.35866 -0.68133,-0.35334 -1.02133,-1.33733 -1.02133,-2.952 0,-1.56533 0.34,-2.524 1.02133,-2.87733 0.37867,-0.20267 0.72,-0.32134 1.02267,-0.35867 0.30266,-0.0387 0.744,-0.0573 1.32533,-0.0573 h 7.872 v 6.66133" /><path
       id="path114"
       style="fill:#e9e8e7;fill-opacity:1;fill-rule:nonzero;stroke:none;stroke-width:0.133333"
       d="m 311.26436,896.53485 c -2.09467,0 -3.95467,-0.54267 -5.58267,-1.62667 -1.628,-1.08667 -2.82667,-2.404 -3.596,-3.956 -0.76933,-1.55333 -1.15333,-3.16133 -1.15333,-4.82533 0,-1.66534 0.40933,-3.28134 1.22933,-4.84534 0.82,-1.56533 2.03067,-2.88266 3.63333,-3.956 1.60267,-1.07333 3.41334,-1.608 5.432,-1.608 0.44,0 0.868,0.0227 1.28667,0.0667 v 6.79067 c -0.37067,-0.10534 -0.78,-0.15867 -1.23067,-0.15867 -1.224,0 -2.14533,0.404 -2.76266,1.212 -0.61867,0.80667 -0.92667,1.62667 -0.92667,2.46 0,0.832 0.31467,1.66533 0.94533,2.49733 0.63067,0.83334 1.56534,1.24934 2.80134,1.24934 0.42933,0 0.82,-0.048 1.17333,-0.14134 v 6.77867 c -0.40533,0.0413 -0.82267,0.0627 -1.24933,0.0627" /><path
       id="path116"
       style="fill:#e9e8e7;fill-opacity:1;fill-rule:nonzero;stroke:none;stroke-width:0.133333"
       d="m 304.56569,912.31885 c -1.59067,0 -2.56133,-0.35334 -2.91467,-1.06 -0.176,-0.37867 -0.284,-0.71334 -0.32133,-1.004 -0.0387,-0.28934 -0.0573,-0.71334 -0.0573,-1.26667 0,-2.62533 0.592,-4.61867 1.77866,-5.98 1.18667,-1.364 3.192,-2.04533 6.01867,-2.04533 h 3.444 v 6.58666 h -3.06667 c -0.68133,0 -1.17333,0.10667 -1.476,0.32134 -0.30133,0.21333 -0.45333,0.61866 -0.45333,1.21066 0,0.59334 -0.0187,1.048 -0.0573,1.364 -0.0373,0.31467 -0.15734,0.648 -0.35867,1.00267 -0.328,0.58 -1.17333,0.87067 -2.536,0.87067" /><path
       id="path118"
       style="fill:#e9e8e7;fill-opacity:1;fill-rule:nonzero;stroke:none;stroke-width:0.133333"
       d="m 312.51369,933.81618 c -0.99867,-0.148 -1.77467,-0.50667 -2.328,-1.07733 -0.744,-0.772 -1.116,-1.624 -1.116,-2.55467 v -8.97067 c -0.70667,0 -1.3,0.41467 -1.77867,1.248 -0.48,0.83334 -0.72,1.66534 -0.72,2.49734 0,1.464 0.152,2.612 0.45467,3.44533 l 0.15067,0.416 c 0.27733,0.60533 0.41733,1.11067 0.41733,1.51467 0,0.80666 -0.568,1.50133 -1.704,2.08133 -0.68133,0.32667 -1.26267,0.492 -1.74133,0.492 -2.24534,0 -3.368,-2.68667 -3.368,-8.06133 0,-1.86934 0.32133,-3.52667 0.96533,-4.97734 0.644,-1.452 1.49467,-2.58133 2.55467,-3.388 2.044,-1.58933 4.328,-2.384 6.85066,-2.384 0.468,0 0.92267,0.0227 1.36267,0.0667 v 19.652" /><path
       id="path120"
       style="fill:#e9e8e7;fill-opacity:1;fill-rule:nonzero;stroke:none;stroke-width:0.133333"
       d="m 311.24569,956.29885 c -2.63733,0 -4.94667,-0.93334 -6.92667,-2.8 -1.98,-1.86667 -2.972,-3.87334 -2.972,-6.01867 0,-2.144 0.60667,-3.67067 1.81867,-4.57867 -1.23733,-0.204 -1.85467,-1.28666 -1.85467,-3.256 0,-1.58933 0.34,-2.56133 1.02134,-2.91466 0.37866,-0.176 0.712,-0.28267 1.00266,-0.32 0.28934,-0.04 0.72534,-0.0587 1.30667,-0.0587 h 7.872 v 6.97067 c -0.41867,-0.18 -0.85333,-0.27067 -1.30533,-0.27067 -0.82,0 -1.57067,0.308 -2.252,0.928 -0.68267,0.61733 -1.02267,1.39333 -1.02267,2.32667 0,0.93466 0.34,1.728 1.02267,2.384 0.68133,0.65733 1.43733,0.98533 2.27066,0.98533 0.44934,0 0.87734,-0.088 1.28667,-0.264 v 6.812 c -0.41467,0.0493 -0.83733,0.0747 -1.268,0.0747" /><path
       id="path122"
       style="fill:#ca352d;fill-opacity:1;fill-rule:nonzero;stroke:none;stroke-width:0.133333"
       d="m 311.34036,995.02018 c -1.236,0 -2.17067,-0.416 -2.80134,-1.24934 -0.63066,-0.832 -0.94533,-1.66533 -0.94533,-2.49733 0,-0.83333 0.308,-1.65333 0.92667,-2.46133 0.61733,-0.808 1.53866,-1.21067 2.76266,-1.21067 0.45067,0 0.86,0.0533 1.23067,0.15867 v 7.11866 c -0.35333,0.0947 -0.744,0.14134 -1.17333,0.14134 m 0,-22.71067 c -1.236,0 -2.17067,-0.41466 -2.80134,-1.248 -0.63066,-0.832 -0.94533,-1.66533 -0.94533,-2.49866 0,-0.832 0.308,-1.65334 0.92667,-2.46 0.61733,-0.80667 1.53866,-1.21067 2.76266,-1.21067 0.45067,0 0.86,0.052 1.23067,0.15867 v 7.11733 c -0.35333,0.0947 -0.744,0.14133 -1.17333,0.14133" /><path
       id="path124"
       style="fill:#e9e8e7;fill-opacity:1;fill-rule:nonzero;stroke:none;stroke-width:0.133333"
       d="m 311.26436,979.01085 c -2.09467,0 -3.95467,-0.544 -5.58267,-1.62934 -1.628,-1.08533 -2.82667,-2.404 -3.596,-3.95466 -0.76933,-1.552 -1.15333,-3.16 -1.15333,-4.82534 0,-1.66533 0.40933,-3.28133 1.22933,-4.84533 0.82,-1.56533 2.03067,-2.88267 3.63333,-3.956 1.60267,-1.072 3.41334,-1.60667 5.432,-1.60667 0.44,0 0.868,0.0213 1.28667,0.0667 v 6.79067 c -0.37067,-0.10667 -0.78,-0.15867 -1.23067,-0.15867 -1.224,0 -2.14533,0.404 -2.76266,1.21067 -0.61867,0.80666 -0.92667,1.628 -0.92667,2.46 0,0.83333 0.31467,1.66666 0.94533,2.49866 0.63067,0.83334 1.56534,1.248 2.80134,1.248 0.42933,0 0.82,-0.0467 1.17333,-0.14133 v 6.78 c -0.40533,0.0413 -0.82267,0.0627 -1.24933,0.0627" /><path
       id="path126"
       style="fill:#e9e8e7;fill-opacity:1;fill-rule:nonzero;stroke:none;stroke-width:0.133333"
       d="m 311.26436,1001.7202 c -2.09467,0 -3.95467,-0.5427 -5.58267,-1.628 -1.628,-1.08402 -2.82667,-2.40269 -3.596,-3.95602 -0.76933,-1.552 -1.15333,-3.16 -1.15333,-4.82534 0,-1.66533 0.40933,-3.28133 1.22933,-4.84533 0.82,-1.564 2.03067,-2.88133 3.63333,-3.956 1.60267,-1.072 3.41334,-1.608 5.432,-1.608 0.44,0 0.868,0.0227 1.28667,0.068 v 6.79067 c -0.37067,-0.10533 -0.78,-0.15867 -1.23067,-0.15867 -1.224,0 -2.14533,0.40267 -2.76266,1.21067 -0.61867,0.808 -0.92667,1.628 -0.92667,2.46133 0,0.832 0.31467,1.66533 0.94533,2.49733 0.63067,0.83334 1.56534,1.24934 2.80134,1.24934 0.42933,0 0.82,-0.0467 1.17333,-0.14134 v 6.77866 c -0.40533,0.041 -0.82267,0.063 -1.24933,0.063" /><path
       id="path128"
       style="fill:#e9e8e7;fill-opacity:1;fill-rule:nonzero;stroke:none;stroke-width:0.133333"
       d="m 305.09502,1022.3855 c -0.60533,0 -1.42533,-0.392 -2.46,-1.1747 -1.06,-0.8573 -1.58933,-1.6146 -1.58933,-2.2706 0,-0.5547 0.36533,-1.324 1.09733,-2.3094 l 0.264,-0.3773 c 0.48,-0.5813 1.31867,-1.476 2.51734,-2.6867 1.19866,-1.2133 2.05066,-2.1333 2.55466,-2.764 h -2.91333 c -0.58133,0 -1.01733,-0.019 -1.30667,-0.057 -0.29066,-0.037 -0.624,-0.1573 -1.00266,-0.3587 -0.656,-0.328 -0.984,-1.3013 -0.984,-2.9146 0,-1.5894 0.34,-2.5614 1.02133,-2.9147 0.37867,-0.1773 0.71333,-0.284 1.004,-0.3227 0.28933,-0.037 0.72533,-0.055 1.30533,-0.055 h 7.91067 v 13.2053 l -1.24933,-1.4733 -4.16267,5.0346 c -0.53067,0.6294 -0.93467,1.028 -1.212,1.192 -0.27867,0.164 -0.54267,0.2467 -0.79467,0.2467" /><path
       id="path130"
       style="fill:#e09628;fill-opacity:1;fill-rule:nonzero;stroke:none;stroke-width:0.133333"
       d="m 309.40436,1214.6495 c -16.70267,-1.5667 -29.772,-15.6253 -29.772,-32.7373 0,-17.1107 13.06933,-31.1694 29.772,-32.736 v 65.4733" /><path
       id="path132"
       style="fill:#f9a62d;fill-opacity:1;fill-rule:nonzero;stroke:none;stroke-width:0.133333"
       d="M 531.10302,1265.9575 H 389.16035 c -8.924,0 -16.15999,-3.992 -16.15999,-8.916 V 743.09352 c 0,-4.924 7.23599,-8.91467 16.15999,-8.91467 h 141.94267 c 8.92533,0 16.16133,3.99067 16.16133,8.91467 v 513.94798 c 0,4.924 -7.236,8.916 -16.16133,8.916" /><path
       id="path134"
       style="fill:#ffffff;fill-opacity:1;fill-rule:nonzero;stroke:none;stroke-width:0.133333"
       d="m 372.99636,870.14285 h 174.27066 v -81.8776 H 372.99636 Z" /><path
       id="path136"
       style="fill:#ffffff;fill-opacity:1;fill-rule:nonzero;stroke:none;stroke-width:0.133333"
       d="m 477.14835,922.55751 c 0.44134,0.24 0.73867,0.59867 0.88934,1.07734 0.152,0.48 0.228,1.08 0.228,1.79866 0,0.71867 -0.064,1.3 -0.19067,1.74 -0.12533,0.44267 -0.27733,0.77067 -0.45333,0.98534 -0.176,0.21333 -0.44134,0.372 -0.79467,0.47333 -0.404,0.152 -1.048,0.22667 -1.93067,0.22667 h -21.00666 c -0.60534,0 -1.048,-0.0187 -1.32534,-0.0573 -0.27733,-0.0373 -0.60533,-0.15733 -0.984,-0.35866 -0.68133,-0.35467 -1.02133,-1.33867 -1.02133,-2.952 0,-0.984 0.0747,-1.66534 0.22667,-2.044 0.152,-0.38 0.39066,-0.69467 0.71866,-0.94667 7.57067,-5.67733 12.516,-9.41333 14.83734,-11.204 h -12.452 c -0.60534,0 -1.048,-0.0187 -1.32534,-0.056 -0.27733,-0.0387 -0.60533,-0.15867 -0.984,-0.36 -0.68133,-0.35467 -1.02133,-1.33733 -1.02133,-2.952 0,-1.56533 0.34,-2.52267 1.02133,-2.876 0.37867,-0.204 0.72,-0.32267 1.02267,-0.36133 0.30267,-0.0373 0.744,-0.056 1.324,-0.056 h 21.12 c 0.96,0 1.66,0.12 2.10133,0.36 0.44134,0.23866 0.73867,0.59866 0.88934,1.07866 0.152,0.47867 0.228,1.09867 0.228,1.85467 0,0.75733 -0.0707,1.356 -0.208,1.79733 -0.14,0.44267 -0.29734,0.75067 -0.47467,0.928 -0.0747,0.1 -0.40267,0.39067 -0.98267,0.86934 -7.24266,5.32533 -12.024,8.88266 -14.34666,10.67466 h 12.79333 c 0.96,0 1.66,0.11867 2.10133,0.36" /><path
       id="path138"
       style="fill:#ffffff;fill-opacity:1;fill-rule:nonzero;stroke:none;stroke-width:0.133333"
       d="m 457.80702,939.22951 c -0.61867,0.80667 -0.928,1.62667 -0.928,2.46 0,0.83334 0.316,1.66534 0.94667,2.49734 0.63066,0.83333 1.56533,1.24933 2.80133,1.24933 1.236,0 2.15733,-0.392 2.76267,-1.17333 0.60666,-0.78267 0.908,-1.628 0.908,-2.53467 0,-0.90933 -0.31467,-1.756 -0.94667,-2.53733 -0.62933,-0.78267 -1.55733,-1.172 -2.78133,-1.172 -1.224,0 -2.14534,0.40266 -2.76267,1.21066 m 10.2,-4.73066 c 1.96933,2.12 2.95333,4.54133 2.95333,7.26666 0,2.72534 -0.97866,5.13334 -2.93333,7.22934 -1.956,2.09333 -4.448,3.14133 -7.476,3.14133 -2.09467,0 -3.95467,-0.54267 -5.58267,-1.62667 -1.628,-1.08666 -2.82666,-2.404 -3.596,-3.956 -0.77066,-1.552 -1.15466,-3.16 -1.15466,-4.82533 0,-1.66533 0.41066,-3.28133 1.23066,-4.84533 0.82,-1.56534 2.032,-2.88267 3.63467,-3.956 1.60133,-1.07334 3.412,-1.608 5.43067,-1.608 3.028,0 5.52533,1.06 7.49333,3.18" /><path
       id="path140"
       style="fill:#ffffff;fill-opacity:1;fill-rule:nonzero;stroke:none;stroke-width:0.133333"
       d="m 463.80569,965.61085 0.152,-2.46 h -5.22267 c -0.68267,0 -1.17467,0.10666 -1.47733,0.32133 -0.30267,0.21467 -0.45334,0.61867 -0.45334,1.212 0,0.592 -0.0187,1.04533 -0.0573,1.36267 -0.0373,0.31466 -0.15733,0.648 -0.36,1.00266 -0.328,0.58134 -1.172,0.87067 -2.53467,0.87067 -1.59066,0 -2.56133,-0.35333 -2.91466,-1.06 -0.17734,-0.37867 -0.284,-0.71333 -0.32267,-1.004 -0.0373,-0.29067 -0.056,-0.71333 -0.056,-1.268 0,-2.624 0.592,-4.61733 1.77867,-5.97867 1.18666,-1.36266 3.192,-2.044 6.01733,-2.044 h 5.60267 c -0.076,-0.48133 -0.11334,-0.99733 -0.11334,-1.552 0,-0.556 0.21334,-1.016 0.644,-1.38266 0.428,-0.36534 1.16,-0.548 2.19334,-0.548 1.036,0 1.78666,0.0627 2.25333,0.18933 0.46667,0.12533 0.80133,0.30133 1.00267,0.53067 0.328,0.40266 0.492,0.90666 0.492,1.512 l -0.15067,1.25066 h 3.89867 c 0.58,0 1.00933,0.0173 1.28666,0.0547 0.27734,0.04 0.58,0.15867 0.908,0.36 0.63067,0.328 0.94667,1.3 0.94667,2.916 0,1.71467 -0.468,2.736 -1.4,3.06533 -0.404,0.12534 -1.048,0.18934 -1.93067,0.18934 h -3.70933 c 0.1,1.10933 0.15067,1.94933 0.15067,2.51733 0,0.568 -0.0187,0.996 -0.056,1.28667 -0.0387,0.28933 -0.15867,0.624 -0.36,1.00266 -0.328,0.656 -1.3,0.984 -2.91467,0.984 -1.58933,0 -2.56133,-0.34 -2.91333,-1.02133 -0.17734,-0.37867 -0.284,-0.71333 -0.32134,-1.004 -0.0387,-0.29067 -0.0587,-0.724 -0.0587,-1.30533" /><path
       id="path142"
       style="fill:#ffffff;fill-opacity:1;fill-rule:nonzero;stroke:none;stroke-width:0.133333"
       d="m 461.80035,981.50818 c 0,0.95733 0.404,1.43867 1.21067,1.43867 0.58,0 1.04667,-0.22134 1.40133,-0.66267 0.35334,-0.44133 0.52934,-1.07333 0.52934,-1.89333 0,-0.82 -0.33467,-1.63467 -1.00267,-2.44134 -0.66933,-0.808 -1.38133,-1.21066 -2.13867,-1.21066 v 4.76933 m 1.11734,7.98533 c -1.55334,0 -2.70134,-0.384 -3.44534,-1.15333 -0.74533,-0.77067 -1.11733,-1.62267 -1.11733,-2.55467 v -8.972 c -0.70533,0 -1.29867,0.41734 -1.77733,1.25067 -0.48,0.832 -0.72,1.664 -0.72,2.49733 0,1.46267 0.152,2.612 0.45466,3.444 l 0.15067,0.416 c 0.27867,0.60534 0.416,1.11067 0.416,1.51467 0,0.808 -0.56667,1.5 -1.70267,2.08266 -0.68133,0.32667 -1.26266,0.49067 -1.74133,0.49067 -2.24533,0 -3.368,-2.68666 -3.368,-8.06133 0,-1.868 0.32133,-3.52667 0.96533,-4.97867 0.644,-1.45066 1.49467,-2.58 2.55467,-3.38666 2.044,-1.58934 4.328,-2.384 6.85067,-2.384 3.18,0 5.72133,1.02666 7.62666,3.084 1.90534,2.056 2.85734,4.624 2.85734,7.70266 0,3.50667 -1.236,6.08 -3.70934,7.72133 -1.312,0.85734 -2.744,1.28667 -4.29466,1.28667" /><path
       id="path144"
       style="fill:#ffffff;fill-opacity:1;fill-rule:nonzero;stroke:none;stroke-width:0.133333"
       d="m 458.24302,999.58018 c -0.68267,0.61862 -1.02267,1.39462 -1.02267,2.32802 0,0.9346 0.34,1.7293 1.02267,2.3853 0.68,0.656 1.43733,0.984 2.27067,0.984 0.832,0 1.596,-0.3027 2.29066,-0.9093 0.69334,-0.6054 1.04,-1.412 1.04,-2.4214 0,-1.0093 -0.35333,-1.8106 -1.06,-2.40396 -0.70666,-0.592 -1.46933,-0.88933 -2.28933,-0.88933 -0.82,0 -1.572,0.30933 -2.252,0.92667 m 12.22533,3.31202 c 0,2.2453 -0.99733,4.3093 -2.99066,6.188 -1.99334,1.88 -4.308,2.8213 -6.94534,2.8213 -2.63733,0 -4.94666,-0.9347 -6.92666,-2.8013 -1.98134,-1.8667 -2.972,-3.8734 -2.972,-6.0187 0,-2.144 0.60666,-3.66932 1.81733,-4.57866 -1.236,-0.204 -1.85467,-1.28666 -1.85467,-3.256 0,-1.58933 0.34134,-2.56 1.02267,-2.91333 0.37733,-0.17733 0.712,-0.28533 1.00267,-0.32133 0.29066,-0.04 0.72533,-0.0573 1.30533,-0.0573 h 22.59733 c 0.58,0 1.01467,0.0173 1.30534,0.0573 0.28933,0.036 0.612,0.144 0.96533,0.32133 0.68133,0.35333 1.02267,1.336 1.02267,2.952 0,1.58933 -0.34134,2.548 -1.02267,2.876 -0.37867,0.20133 -0.71333,0.32133 -1.00267,0.36 -0.29066,0.0373 -0.72666,0.056 -1.30666,0.056 h -7.872 c 1.236,1.00933 1.85466,2.44669 1.85466,4.31469" /><path
       id="path146"
       style="fill:#ffffff;fill-opacity:1;fill-rule:nonzero;stroke:none;stroke-width:0.133333"
       d="m 457.80702,1021.7042 c -0.61867,0.808 -0.928,1.628 -0.928,2.4613 0,0.832 0.316,1.6653 0.94667,2.4973 0.63066,0.8334 1.56533,1.248 2.80133,1.248 1.236,0 2.15733,-0.3906 2.76267,-1.172 0.60666,-0.7826 0.908,-1.628 0.908,-2.5373 0,-0.9067 -0.31467,-1.7533 -0.94667,-2.5347 -0.62933,-0.7826 -1.55733,-1.1733 -2.78133,-1.1733 -1.224,0 -2.14534,0.4027 -2.76267,1.2107 m 10.2,-4.7307 c 1.96933,2.1187 2.95333,4.5413 2.95333,7.268 0,2.724 -0.97866,5.1333 -2.93333,7.228 -1.956,2.0947 -4.448,3.1427 -7.476,3.1427 -2.09467,0 -3.95467,-0.544 -5.58267,-1.6294 -1.628,-1.084 -2.82666,-2.404 -3.596,-3.9546 -0.77066,-1.552 -1.15466,-3.16 -1.15466,-4.8267 0,-1.6653 0.41066,-3.28 1.23066,-4.844 0.82,-1.564 2.032,-2.8827 3.63467,-3.956 1.60133,-1.072 3.412,-1.608 5.43067,-1.608 3.028,0 5.52533,1.06 7.49333,3.18" /><path
       id="path148"
       style="fill:#ffffff;fill-opacity:1;fill-rule:nonzero;stroke:none;stroke-width:0.133333"
       d="m 457.80702,1044.4135 c -0.61867,0.808 -0.928,1.628 -0.928,2.4613 0,0.832 0.316,1.6654 0.94667,2.4974 0.63066,0.8333 1.56533,1.2493 2.80133,1.2493 1.236,0 2.15733,-0.3907 2.76267,-1.1733 0.60666,-0.7827 0.908,-1.628 0.908,-2.5347 0,-0.9093 -0.31467,-1.756 -0.94667,-2.5373 -0.62933,-0.7827 -1.55733,-1.1734 -2.78133,-1.1734 -1.224,0 -2.14534,0.404 -2.76267,1.2107 m 10.2,-4.7307 c 1.96933,2.12 2.95333,4.5427 2.95333,7.268 0,2.7254 -0.97866,5.1334 -2.93333,7.2294 -1.956,2.0933 -4.448,3.1413 -7.476,3.1413 -2.09467,0 -3.95467,-0.5427 -5.58267,-1.628 -1.628,-1.0853 -2.82666,-2.4027 -3.596,-3.956 -0.77066,-1.552 -1.15466,-3.16 -1.15466,-4.824 0,-1.6667 0.41066,-3.2813 1.23066,-4.8467 0.82,-1.564 2.032,-2.8826 3.63467,-3.9546 1.60133,-1.0734 3.412,-1.608 5.43067,-1.608 3.028,0 5.52533,1.06 7.49333,3.1786" /><path
       id="path150"
       style="fill:#ffffff;fill-opacity:1;fill-rule:nonzero;stroke:none;stroke-width:0.133333"
       d="m 460.55102,1071.5135 -4.164,5.0347 c -0.52933,0.6306 -0.93333,1.028 -1.21067,1.192 -0.27733,0.1626 -0.54266,0.2466 -0.79466,0.2466 -0.60534,0 -1.42534,-0.392 -2.46,-1.1746 -1.06,-0.856 -1.58934,-1.6147 -1.58934,-2.2707 0,-0.5547 0.36534,-1.324 1.09734,-2.308 l 0.264,-0.3773 c 0.48,-0.5827 1.31866,-1.4774 2.51733,-2.688 1.19867,-1.212 2.05067,-2.1334 2.55467,-2.7627 h -2.91334 c -0.58133,0 -1.01733,-0.02 -1.30533,-0.059 -0.292,-0.037 -0.62533,-0.1573 -1.004,-0.3586 -0.65733,-0.328 -0.984,-1.3014 -0.984,-2.9134 0,-1.5906 0.34,-2.564 1.02133,-2.916 0.37867,-0.1773 0.71334,-0.284 1.004,-0.3213 0.28934,-0.039 0.724,-0.056 1.30534,-0.056 h 22.672 c 0.58,0 1.016,0.017 1.30533,0.056 0.29067,0.037 0.62533,0.144 1.004,0.3213 0.68133,0.352 1.02267,1.3374 1.02267,2.9534 0,1.2106 -0.216,2.0693 -0.644,2.572 -0.35467,0.4293 -0.90934,0.656 -1.66667,0.6813 -0.22533,0.027 -0.58,0.04 -1.05867,0.04 h -11.99866 c 0.37866,0.4533 1.02133,1.14 1.93066,2.0613 0.908,0.9214 1.55067,1.608 1.93067,2.0627 l 0.30133,0.4547 c 0.68134,0.8826 1.02267,1.6386 1.02267,2.2706 0,0.6307 -0.51067,1.3574 -1.53333,2.1774 -1.02134,0.8186 -1.824,1.2293 -2.404,1.2293 -0.58,0 -1.26134,-0.4667 -2.04267,-1.4 l -3.18,-3.748" /><path
       id="path152"
       style="fill:#58595b;fill-opacity:1;fill-rule:nonzero;stroke:none;stroke-width:0.133333"
       d="m 456.87902,1214.7948 c 18.16133,0 32.88267,-14.7213 32.88267,-32.8826 0,-18.16 -14.72134,-32.8814 -32.88267,-32.8814 -18.15867,0 -32.88,14.7214 -32.88,32.8814 0,18.1613 14.72133,32.8826 32.88,32.8826" /><path
       id="path154"
       style="fill:#30285f;fill-opacity:1;fill-rule:nonzero;stroke:none;stroke-width:0.133333"
       d="m 372.99636,788.26552 v 0 l 0.003,-45.172 c 0,-0.208 0.0133,-0.41334 0.0387,-0.616 -0.0253,0.20266 -0.0373,0.40933 -0.0373,0.616 v 45.172" /><path
       id="path156"
       style="fill:#30285f;fill-opacity:1;fill-rule:nonzero;stroke:none;stroke-width:0.133333"
       d="m 372.99902,978.67485 v -108.532 h -0.003 l 0.004,108.53066 -0.001,0.001" /><path
       id="path158"
       style="fill:#714aa9;fill-opacity:1;fill-rule:nonzero;stroke:none;stroke-width:0.133333"
       d="m 373.00036,1009.9788 h -10e-4 v -31.30395 l 10e-4,-10e-4 v 31.30525" /><path
       id="path160"
       style="fill:#e27827;fill-opacity:1;fill-rule:nonzero;stroke:none;stroke-width:0.133333"
       d="m 372.99902,1057.1588 h 0.002 v -47.1802 h -0.002 z" /><path
       id="path162"
       style="fill:#d45327;fill-opacity:1;fill-rule:nonzero;stroke:none;stroke-width:0.133333"
       d="m 372.99902,1117.3935 h 0.002 v -60.2344 h -0.002 z" /><path
       id="path164"
       style="fill:#e09628;fill-opacity:1;fill-rule:nonzero;stroke:none;stroke-width:0.133333"
       d="m 460.53235,1117.3935 h -32.61866 v 0 h -30.03067 -24.88266 v -60.2347 -47.18 -31.30529 -108.53066 h 87.53199 v 34.492 h -6.60533 c -0.58,0 -1.02133,0.0187 -1.324,0.056 -0.30267,0.0387 -0.644,0.15733 -1.02267,0.36133 -0.68133,0.35333 -1.02133,1.31067 -1.02133,2.876 0,1.61467 0.34,2.59733 1.02133,2.952 0.37867,0.20133 0.70667,0.32133 0.984,0.36 0.27734,0.0373 0.72,0.056 1.32534,0.056 h 6.64266 v 4.416 c -2.41466,1.82267 -5.424,4.08533 -9.028,6.788 -0.328,0.252 -0.56666,0.56667 -0.71866,0.94667 -0.152,0.37866 -0.22667,1.06 -0.22667,2.044 0,1.61333 0.34,2.59733 1.02133,2.952 0.37867,0.20133 0.70667,0.32133 0.984,0.35866 0.27734,0.0387 0.72,0.0573 1.32534,0.0573 h 6.64266 v 2.46 c -0.007,0 -0.0133,0 -0.0187,0 -2.01867,0 -3.82934,0.53466 -5.43067,1.608 -1.60267,1.07333 -2.81467,2.39066 -3.63467,3.956 -0.82,1.564 -1.23066,3.18 -1.23066,4.84533 0,1.66533 0.384,3.27333 1.15466,4.82533 0.76934,1.552 1.968,2.86934 3.596,3.956 1.62267,1.08134 3.47734,1.624 5.564,1.62667 v 4.42933 h -2.17733 c -2.82533,0 -4.83067,0.68134 -6.01733,2.044 -1.18667,1.36134 -1.77867,3.35467 -1.77867,5.97867 0,0.55467 0.0187,0.97733 0.056,1.268 0.0387,0.29067 0.14533,0.62533 0.32267,1.004 0.35333,0.70667 1.324,1.06 2.91466,1.06 1.36267,0 2.20667,-0.28933 2.53467,-0.87067 0.20267,-0.35466 0.32267,-0.688 0.36,-1.00266 0.0387,-0.31734 0.0573,-0.77067 0.0573,-1.36267 0,-0.59333 0.15067,-0.99733 0.45334,-1.212 0.30266,-0.21467 0.79466,-0.32133 1.47733,-0.32133 h 1.79733 v 6.548 c -0.032,0 -0.0627,0 -0.0947,0 -2.52267,0 -4.80667,0.79466 -6.85067,2.384 -1.06,0.80666 -1.91067,1.936 -2.55467,3.38666 -0.644,1.452 -0.96533,3.11067 -0.96533,4.97867 0,5.37467 1.12267,8.06133 3.368,8.06133 0.47867,0 1.06,-0.164 1.74133,-0.49067 1.136,-0.58266 1.70267,-1.27466 1.70267,-2.08266 0,-0.404 -0.13733,-0.90933 -0.416,-1.51467 l -0.15067,-0.416 c -0.30266,-0.832 -0.45466,-1.98133 -0.45466,-3.444 0,-0.83333 0.24,-1.66533 0.72,-2.49733 0.47866,-0.83333 1.072,-1.25067 1.77733,-1.25067 v 8.972 c 0,0.932 0.372,1.784 1.11733,2.55467 0.29067,0.30133 0.644,0.54266 1.06,0.72666 v 2.888 h -6.60533 c -0.58,0 -1.01467,0.0173 -1.30533,0.0573 -0.29067,0.036 -0.62534,0.144 -1.00267,0.32133 -0.68133,0.35333 -1.02267,1.324 -1.02267,2.91333 0,1.96934 0.61867,3.052 1.85467,3.256 -1.21067,0.90934 -1.81733,2.43464 -1.81733,4.57864 0,2.1453 0.99066,4.152 2.972,6.0187 1.98,1.8666 4.28933,2.8013 6.92666,2.8013 v 0 1.892 c -0.007,0 -0.0133,0 -0.0187,0 -2.01867,0 -3.82934,0.536 -5.43067,1.608 -1.60267,1.0733 -2.81467,2.392 -3.63467,3.956 -0.82,1.564 -1.23066,3.1787 -1.23066,4.844 0,1.6667 0.384,3.2747 1.15466,4.8267 0.76934,1.5506 1.968,2.8706 3.596,3.9546 1.62267,1.0827 3.47734,1.6254 5.564,1.6294 v 1.892 c -0.007,0 -0.0133,0 -0.0187,0 -2.01867,0 -3.82934,0.5346 -5.43067,1.608 -1.60267,1.072 -2.81467,2.3906 -3.63467,3.9546 -0.82,1.5654 -1.23066,3.18 -1.23066,4.8467 0,1.664 0.384,3.272 1.15466,4.824 0.76934,1.5533 1.968,2.8707 3.596,3.956 1.62267,1.0813 3.47734,1.624 5.564,1.628 v 2.46 h -6.64266 c -0.58134,0 -1.016,0.017 -1.30534,0.056 -0.29066,0.037 -0.62533,0.144 -1.004,0.3213 -0.68133,0.352 -1.02133,1.3254 -1.02133,2.916 0,1.612 0.32667,2.5854 0.984,2.9134 0.37867,0.2013 0.712,0.3213 1.004,0.3586 0.288,0.039 0.724,0.059 1.30533,0.059 h 2.91334 c -0.504,0.6293 -1.356,1.5507 -2.55467,2.7627 -1.19867,1.2106 -2.03733,2.1053 -2.51733,2.688 l -0.264,0.3773 c -0.732,0.984 -1.09734,1.7533 -1.09734,2.308 0,0.656 0.52934,1.4147 1.58934,2.2707 1.03466,0.7826 1.85466,1.1746 2.46,1.1746 0.252,0 0.51733,-0.084 0.79466,-0.2466 0.27734,-0.164 0.68134,-0.5614 1.21067,-1.192 l 4.14533,-5.0107 v 45.856 m 0,-171.95863 c -1.18933,-0.02 -2.092,-0.436 -2.70666,-1.248 -0.63067,-0.832 -0.94667,-1.664 -0.94667,-2.49734 0,-0.83333 0.30933,-1.65333 0.928,-2.46 0.61067,-0.79866 1.52,-1.20266 2.72533,-1.21066 v 7.416 m 0,-157.16933 h -87.53599 l 0.004,-45.172 c 0,-0.20667 0.012,-0.41334 0.0373,-0.616 0.584,-4.636 7.69733,-8.29867 16.38666,-8.29867 h 71.108 v 54.08667" /><path
       id="path166"
       style="fill:#e9e8e7;fill-opacity:1;fill-rule:nonzero;stroke:none;stroke-width:0.133333"
       d="m 460.53235,870.14285 h -87.53599 l 0.003,-81.87733 h -0.003 87.53599 v 81.87733" /><path
       id="path168"
       style="fill:#e9e8e7;fill-opacity:1;fill-rule:nonzero;stroke:none;stroke-width:0.133333"
       d="m 460.53235,928.85885 h -6.64266 c -0.60534,0 -1.048,-0.0187 -1.32534,-0.0573 -0.27733,-0.0373 -0.60533,-0.15733 -0.984,-0.35866 -0.68133,-0.35467 -1.02133,-1.33867 -1.02133,-2.952 0,-0.984 0.0747,-1.66534 0.22667,-2.044 0.152,-0.38 0.39066,-0.69467 0.71866,-0.94667 3.604,-2.70267 6.61334,-4.96533 9.028,-6.788 v 13.14667 m 0,-17.56267 h -6.64266 c -0.60534,0 -1.048,-0.0187 -1.32534,-0.056 -0.27733,-0.0387 -0.60533,-0.15867 -0.984,-0.36 -0.68133,-0.35467 -1.02133,-1.33733 -1.02133,-2.952 0,-1.56533 0.34,-2.52267 1.02133,-2.876 0.37867,-0.204 0.72,-0.32267 1.02267,-0.36133 0.30267,-0.0373 0.744,-0.056 1.324,-0.056 h 6.60533 v 6.66133" /><path
       id="path170"
       style="fill:#e9e8e7;fill-opacity:1;fill-rule:nonzero;stroke:none;stroke-width:0.133333"
       d="m 460.53235,952.13618 c -2.08666,-0.003 -3.94133,-0.54533 -5.564,-1.62667 -1.628,-1.08666 -2.82666,-2.404 -3.596,-3.956 -0.77066,-1.552 -1.15466,-3.16 -1.15466,-4.82533 0,-1.66533 0.41066,-3.28133 1.23066,-4.84533 0.82,-1.56534 2.032,-2.88267 3.63467,-3.956 1.60133,-1.07334 3.412,-1.608 5.43067,-1.608 0.005,0 0.012,0 0.0187,0 v 6.7 c -1.20533,0.008 -2.11466,0.412 -2.72533,1.21066 -0.61867,0.80667 -0.928,1.62667 -0.928,2.46 0,0.83334 0.316,1.66534 0.94667,2.49734 0.61466,0.812 1.51733,1.228 2.70666,1.248 v 6.70133" /><path
       id="path172"
       style="fill:#e09628;fill-opacity:1;fill-rule:nonzero;stroke:none;stroke-width:0.133333"
       d="m 460.51369,1005.2775 c -0.83334,0 -1.59067,-0.328 -2.27067,-0.984 -0.68267,-0.656 -1.02267,-1.4507 -1.02267,-2.3853 0,-0.9334 0.34,-1.7094 1.02267,-2.32802 0.68,-0.61734 1.432,-0.92667 2.252,-0.92667 0.012,0 0.024,0 0.0373,0 v 6.62399 c -0.007,0 -0.0133,0 -0.0187,0" /><path
       id="path174"
       style="fill:#e9e8e7;fill-opacity:1;fill-rule:nonzero;stroke:none;stroke-width:0.133333"
       d="m 453.85235,967.92018 c -1.59066,0 -2.56133,-0.35333 -2.91466,-1.06 -0.17734,-0.37867 -0.284,-0.71333 -0.32267,-1.004 -0.0373,-0.29067 -0.056,-0.71333 -0.056,-1.268 0,-2.624 0.592,-4.61733 1.77867,-5.97867 1.18666,-1.36266 3.192,-2.044 6.01733,-2.044 h 2.17733 v 6.58534 h -1.79733 c -0.68267,0 -1.17467,0.10666 -1.47733,0.32133 -0.30267,0.21467 -0.45334,0.61867 -0.45334,1.212 0,0.592 -0.0187,1.04533 -0.0573,1.36267 -0.0373,0.31466 -0.15733,0.648 -0.36,1.00266 -0.328,0.58134 -1.172,0.87067 -2.53467,0.87067" /><path
       id="path176"
       style="fill:#e9e8e7;fill-opacity:1;fill-rule:nonzero;stroke:none;stroke-width:0.133333"
       d="m 460.53235,989.06684 c -0.416,-0.184 -0.76933,-0.42533 -1.06,-0.72666 -0.74533,-0.77067 -1.11733,-1.62267 -1.11733,-2.55467 v -8.972 c -0.70533,0 -1.29867,0.41734 -1.77733,1.25067 -0.48,0.832 -0.72,1.664 -0.72,2.49733 0,1.46267 0.152,2.612 0.45466,3.444 l 0.15067,0.416 c 0.27867,0.60534 0.416,1.11067 0.416,1.51467 0,0.808 -0.56667,1.5 -1.70267,2.08266 -0.68133,0.32667 -1.26266,0.49067 -1.74133,0.49067 -2.24533,0 -3.368,-2.68666 -3.368,-8.06133 0,-1.868 0.32133,-3.52667 0.96533,-4.97867 0.644,-1.45066 1.49467,-2.58 2.55467,-3.38666 2.044,-1.58934 4.328,-2.384 6.85067,-2.384 0.032,0 0.0627,0 0.0947,0 v 19.36799" /><path
       id="path178"
       style="fill:#e9e8e7;fill-opacity:1;fill-rule:nonzero;stroke:none;stroke-width:0.133333"
       d="m 460.53235,1011.9015 c -2.63733,0 -4.94666,-0.9347 -6.92666,-2.8013 -1.98134,-1.8667 -2.972,-3.8734 -2.972,-6.0187 0,-2.144 0.60666,-3.66932 1.81733,-4.57866 -1.236,-0.204 -1.85467,-1.28666 -1.85467,-3.256 0,-1.58933 0.34134,-2.56 1.02267,-2.91333 0.37733,-0.17733 0.712,-0.28533 1.00267,-0.32133 0.29066,-0.04 0.72533,-0.0573 1.30533,-0.0573 h 6.60533 v 6.69867 c -0.0133,0 -0.0253,0 -0.0373,0 -0.82,0 -1.572,0.30933 -2.252,0.92667 -0.68267,0.61858 -1.02267,1.39458 -1.02267,2.32798 0,0.9346 0.34,1.7293 1.02267,2.3853 0.68,0.656 1.43733,0.984 2.27067,0.984 0.005,0 0.012,0 0.0187,0 v 6.624 0" /><path
       id="path180"
       style="fill:#e09628;fill-opacity:1;fill-rule:nonzero;stroke:none;stroke-width:0.133333"
       d="m 460.53235,1050.6202 c -1.18933,-0.021 -2.092,-0.436 -2.70666,-1.248 -0.63067,-0.832 -0.94667,-1.6654 -0.94667,-2.4974 0,-0.8333 0.30933,-1.6533 0.928,-2.4613 0.61067,-0.7987 1.52,-1.2013 2.72533,-1.2107 v 7.4174 m 0,-22.7094 c -1.18933,-0.021 -2.092,-0.436 -2.70666,-1.248 -0.63067,-0.832 -0.94667,-1.6653 -0.94667,-2.4973 0,-0.8333 0.30933,-1.6533 0.928,-2.4613 0.61067,-0.7987 1.52,-1.2014 2.72533,-1.2107 v 7.4173" /><path
       id="path182"
       style="fill:#e9e8e7;fill-opacity:1;fill-rule:nonzero;stroke:none;stroke-width:0.133333"
       d="m 460.53235,1034.6122 c -2.08666,0 -3.94133,-0.5467 -5.564,-1.6294 -1.628,-1.084 -2.82666,-2.404 -3.596,-3.9546 -0.77066,-1.552 -1.15466,-3.16 -1.15466,-4.8267 0,-1.6653 0.41066,-3.28 1.23066,-4.844 0.82,-1.564 2.032,-2.8827 3.63467,-3.956 1.60133,-1.072 3.412,-1.608 5.43067,-1.608 0.005,0 0.012,0 0.0187,0 v 6.7 c -1.20533,0.01 -2.11466,0.412 -2.72533,1.2107 -0.61867,0.808 -0.928,1.628 -0.928,2.4613 0,0.832 0.316,1.6653 0.94667,2.4973 0.61466,0.812 1.51733,1.2267 2.70666,1.248 v 6.7014" /><path
       id="path184"
       style="fill:#e9e8e7;fill-opacity:1;fill-rule:nonzero;stroke:none;stroke-width:0.133333"
       d="m 460.53235,1057.3215 c -2.08666,0 -3.94133,-0.5467 -5.564,-1.628 -1.628,-1.0853 -2.82666,-2.4027 -3.596,-3.956 -0.77066,-1.552 -1.15466,-3.16 -1.15466,-4.824 0,-1.6667 0.41066,-3.2813 1.23066,-4.8467 0.82,-1.564 2.032,-2.8826 3.63467,-3.9546 1.60133,-1.0734 3.412,-1.608 5.43067,-1.608 0.005,0 0.012,0 0.0187,0 v 6.6986 c -1.20533,0.01 -2.11466,0.412 -2.72533,1.2107 -0.61867,0.808 -0.928,1.628 -0.928,2.4613 0,0.832 0.316,1.6654 0.94667,2.4974 0.61466,0.812 1.51733,1.2266 2.70666,1.248 v 6.7013" /><path
       id="path186"
       style="fill:#e9e8e7;fill-opacity:1;fill-rule:nonzero;stroke:none;stroke-width:0.133333"
       d="m 454.38169,1077.9868 c -0.60534,0 -1.42534,-0.392 -2.46,-1.1746 -1.06,-0.856 -1.58934,-1.6147 -1.58934,-2.2707 0,-0.5547 0.36534,-1.324 1.09734,-2.308 l 0.264,-0.3773 c 0.48,-0.5827 1.31866,-1.4774 2.51733,-2.688 1.19867,-1.212 2.05067,-2.1334 2.55467,-2.7627 h -2.91334 c -0.58133,0 -1.01733,-0.02 -1.30533,-0.059 -0.292,-0.037 -0.62533,-0.1573 -1.004,-0.3586 -0.65733,-0.328 -0.984,-1.3014 -0.984,-2.9134 0,-1.5906 0.34,-2.564 1.02133,-2.916 0.37867,-0.1773 0.71334,-0.284 1.004,-0.3213 0.28934,-0.039 0.724,-0.056 1.30534,-0.056 h 6.64266 v 11.756 l -4.14533,5.0107 c -0.52933,0.6306 -0.93333,1.028 -1.21067,1.192 -0.27733,0.1626 -0.54266,0.2466 -0.79466,0.2466" /><path
       id="path188"
       style="fill:#7a53af;fill-opacity:1;fill-rule:nonzero;stroke:none;stroke-width:0.133333"
       d="m 1179.3097,1131.9775 v 128.1 c 0,8.0533 -6.5294,14.584 -14.584,14.584 H 323.98702 c -8.05333,0 -14.58266,-6.5307 -14.58266,-14.584 v -128.1 c 0,-8.0547 6.52933,-14.584 14.58266,-14.584 h 840.73868 c 8.0546,0 14.584,6.5293 14.584,14.584" /><path
       id="path190"
       style="fill:#ffffff;fill-opacity:1;fill-rule:nonzero;stroke:none;stroke-width:0.133333"
       d="m 397.88302,1274.6642 h 30.03067 v -157.2734 h -30.03067 z" /><path
       id="path192"
       style="fill:#ffffff;fill-opacity:1;fill-rule:nonzero;stroke:none;stroke-width:0.133333"
       d="m 509.59902,1274.6642 h 30.03066 v -157.2734 h -30.03066 z" /><path
       id="path194"
       style="fill:#ffffff;fill-opacity:1;fill-rule:nonzero;stroke:none;stroke-width:0.133333"
       d="m 654.55635,1176.7495 c 0.31466,-0.5787 0.788,-0.9693 1.41733,-1.168 0.63067,-0.2 1.41867,-0.2987 2.36533,-0.2987 0.94534,0 1.70934,0.083 2.29067,0.248 0.58,0.1667 1.012,0.3654 1.29333,0.5974 0.28134,0.232 0.48934,0.5813 0.62267,1.044 0.19867,0.532 0.29867,1.3786 0.29867,2.54 v 27.628 c 0,0.796 -0.0253,1.3773 -0.0747,1.7413 -0.0493,0.3667 -0.208,0.7973 -0.472,1.2947 -0.46667,0.896 -1.76133,1.344 -3.884,1.344 -1.29333,0 -2.18933,-0.1 -2.688,-0.2987 -0.49733,-0.1987 -0.91333,-0.5147 -1.244,-0.9453 -7.468,-9.9547 -12.38,-16.4614 -14.73466,-19.5134 v 16.3774 c 0,0.796 -0.0253,1.3773 -0.076,1.7413 -0.0493,0.3667 -0.20667,0.7973 -0.472,1.2947 -0.46534,0.896 -1.76,1.344 -3.88267,1.344 -2.05867,0 -3.31867,-0.448 -3.78267,-1.344 -0.26666,-0.4974 -0.424,-0.9454 -0.47333,-1.344 -0.0507,-0.3987 -0.0747,-0.9774 -0.0747,-1.7414 v -27.7786 c 0,-1.26 0.15734,-2.18 0.47334,-2.7627 0.31466,-0.5787 0.78666,-0.9693 1.41733,-1.168 0.63067,-0.2 1.44533,-0.2987 2.44,-0.2987 0.996,0 1.78267,0.091 2.364,0.2734 0.58133,0.1813 0.988,0.3906 1.22,0.6213 0.132,0.1 0.51467,0.532 1.14533,1.2947 7.00133,9.5253 11.68,15.8133 14.03733,18.8666 v -16.8266 c 0,-1.26 0.15734,-2.18 0.47334,-2.7627" /><path
       id="path196"
       style="fill:#ffffff;fill-opacity:1;fill-rule:nonzero;stroke:none;stroke-width:0.133333"
       d="m 676.48301,1202.1868 c 1.06,0.8147 2.14,1.22 3.23467,1.22 1.096,0 2.192,-0.4146 3.28667,-1.244 1.09466,-0.8293 1.64133,-2.0573 1.64133,-3.684 0,-1.6253 -0.51467,-2.8373 -1.54133,-3.6346 -1.02934,-0.7947 -2.14134,-1.1934 -3.336,-1.1934 -1.196,0 -2.308,0.4147 -3.33467,1.2454 -1.02933,0.8293 -1.544,2.0493 -1.544,3.6573 0,1.6107 0.53067,2.8213 1.59333,3.6333 m -6.22266,-13.4146 c 2.788,-2.5894 5.97333,-3.8827 9.55733,-3.8827 3.58533,0 6.752,1.2867 9.508,3.8573 2.75467,2.572 4.132,5.8494 4.132,9.832 0,2.7547 -0.71467,5.2027 -2.14133,7.3414 -1.42667,2.14 -3.16134,3.7173 -5.20134,4.7293 -2.04133,1.0133 -4.156,1.52 -6.34666,1.52 -2.19067,0 -4.31467,-0.5387 -6.372,-1.6187 -2.05867,-1.0786 -3.79067,-2.6706 -5.20267,-4.7786 -1.41067,-2.1067 -2.11467,-4.488 -2.11467,-7.1427 0,-3.984 1.39467,-7.2693 4.18134,-9.8573" /><path
       id="path198"
       style="fill:#ffffff;fill-opacity:1;fill-rule:nonzero;stroke:none;stroke-width:0.133333"
       d="m 711.17901,1194.2975 -3.236,-0.1987 v 6.8707 c 0,0.8947 0.14134,1.5413 0.424,1.94 0.28134,0.3987 0.812,0.596 1.592,0.596 0.78,0 1.37734,0.025 1.792,0.076 0.41467,0.051 0.85467,0.2067 1.31867,0.4733 0.764,0.4307 1.14533,1.5427 1.14533,3.3347 0,2.0907 -0.46533,3.368 -1.39333,3.8333 -0.49733,0.232 -0.93733,0.3734 -1.32,0.4227 -0.38133,0.049 -0.93733,0.075 -1.66533,0.075 -3.45334,0 -6.07334,-0.7787 -7.86534,-2.3387 -1.79333,-1.56 -2.68933,-4.1987 -2.68933,-7.9147 v -7.368 c -0.63067,0.099 -1.312,0.1494 -2.04,0.1494 -0.732,0 -1.33733,-0.2827 -1.81733,-0.8454 -0.48134,-0.5653 -0.72134,-1.528 -0.72134,-2.888 0,-1.3613 0.0813,-2.348 0.248,-2.9626 0.16534,-0.6134 0.39734,-1.052 0.69734,-1.32 0.53066,-0.4307 1.19466,-0.6454 1.99066,-0.6454 l 1.64267,0.1974 v -5.1254 c 0,-0.7626 0.0253,-1.328 0.0747,-1.6933 0.0493,-0.364 0.20666,-0.7627 0.47333,-1.1947 0.43067,-0.8293 1.708,-1.2453 3.83333,-1.2453 2.256,0 3.6,0.6147 4.03067,1.8427 0.16533,0.532 0.24933,1.3773 0.24933,2.5386 v 4.8774 c 1.46,-0.1307 2.564,-0.1974 3.31067,-0.1974 0.74667,0 1.31067,0.024 1.692,0.075 0.38133,0.049 0.82133,0.2067 1.32,0.472 0.86267,0.4307 1.29333,1.7107 1.29333,3.8333 0,2.0907 -0.448,3.3694 -1.344,3.832 -0.49733,0.2334 -0.93733,0.3747 -1.31866,0.424 -0.38134,0.051 -0.95467,0.075 -1.71734,0.075" /><path
       id="path200"
       style="fill:#ffffff;fill-opacity:1;fill-rule:nonzero;stroke:none;stroke-width:0.133333"
       d="m 732.08568,1196.9362 c 1.26133,0 1.892,-0.532 1.892,-1.5934 0,-0.7626 -0.29067,-1.3773 -0.87067,-1.8413 -0.58133,-0.4653 -1.412,-0.696 -2.48933,-0.696 -1.07867,0 -2.14933,0.4387 -3.21067,1.3187 -1.06266,0.88 -1.59333,1.816 -1.59333,2.812 h 6.272 m 10.50267,-1.4694 c 0,2.0427 -0.50534,3.552 -1.51734,4.5307 -1.01333,0.9787 -2.13333,1.4693 -3.36,1.4693 h -11.79733 c 0,0.9294 0.54667,1.708 1.64267,2.3387 1.09466,0.6307 2.18933,0.9453 3.28533,0.9453 1.924,0 3.43467,-0.1986 4.52933,-0.5973 l 0.548,-0.2 c 0.796,-0.364 1.46,-0.5467 1.99067,-0.5467 1.06267,0 1.97333,0.7467 2.73867,2.24 0.42933,0.896 0.64666,1.66 0.64666,2.2907 0,2.9547 -3.53466,4.4293 -10.60266,4.4293 -2.45734,0 -4.63867,-0.4213 -6.54534,-1.2693 -1.90933,-0.8467 -3.39466,-1.9653 -4.456,-3.3587 -2.09066,-2.688 -3.136,-5.692 -3.136,-9.0106 0,-4.1814 1.35067,-7.524 4.056,-10.0307 2.70534,-2.5053 6.08267,-3.7587 10.13067,-3.7587 4.61333,0 7.99733,1.6254 10.15467,4.8787 1.128,1.7253 1.692,3.6093 1.692,5.6493" /><path
       id="path202"
       style="fill:#ffffff;fill-opacity:1;fill-rule:nonzero;stroke:none;stroke-width:0.133333"
       d="m 755.85635,1201.6162 c 0.812,0.8946 1.832,1.3426 3.06133,1.3426 1.22667,0 2.272,-0.448 3.136,-1.3426 0.86267,-0.896 1.29333,-1.892 1.29333,-2.9867 0,-1.096 -0.39733,-2.1 -1.19466,-3.012 -0.796,-0.9133 -1.85867,-1.3693 -3.18534,-1.3693 -1.328,0 -2.38133,0.4653 -3.16133,1.3933 -0.78,0.9293 -1.16933,1.9347 -1.16933,3.012 0,1.0787 0.40533,2.0667 1.22,2.9627 m 4.356,-16.08 c 2.95333,0 5.66533,1.3106 8.13733,3.9333 2.47333,2.6213 3.70933,5.6667 3.70933,9.1347 0,3.4666 -1.228,6.504 -3.684,9.1093 -2.456,2.6053 -5.09333,3.9067 -7.91466,3.9067 -2.82134,0 -4.82934,-0.796 -6.02267,-2.388 -0.26667,1.6253 -1.692,2.4386 -4.28133,2.4386 -2.09067,0 -3.36934,-0.448 -3.83334,-1.344 -0.232,-0.4973 -0.37333,-0.9373 -0.42266,-1.3186 -0.0507,-0.3827 -0.0747,-0.9534 -0.0747,-1.7174 v -29.72 c 0,-0.7626 0.024,-1.3333 0.0747,-1.7173 0.0493,-0.38 0.19066,-0.8027 0.42266,-1.2693 0.464,-0.896 1.75734,-1.3427 3.88267,-1.3427 2.09067,0 3.352,0.4467 3.78267,1.3427 0.26533,0.4986 0.42266,0.9386 0.47333,1.3213 0.0493,0.3813 0.0747,0.9533 0.0747,1.7147 v 10.356 c 1.32666,-1.6267 3.21866,-2.44 5.676,-2.44" /><path
       id="path204"
       style="fill:#ffffff;fill-opacity:1;fill-rule:nonzero;stroke:none;stroke-width:0.133333"
       d="m 784.95101,1202.1868 c 1.06133,0.8147 2.14133,1.22 3.23733,1.22 1.09467,0 2.18934,-0.4146 3.284,-1.244 1.096,-0.8293 1.64267,-2.0573 1.64267,-3.684 0,-1.6253 -0.516,-2.8373 -1.54267,-3.6346 -1.02933,-0.7947 -2.14133,-1.1934 -3.336,-1.1934 -1.19466,0 -2.30666,0.4147 -3.33466,1.2454 -1.02934,0.8293 -1.544,2.0493 -1.544,3.6573 0,1.6107 0.53066,2.8213 1.59333,3.6333 m -6.22133,-13.4146 c 2.788,-2.5894 5.97333,-3.8827 9.55733,-3.8827 3.584,0 6.752,1.2867 9.508,3.8573 2.75333,2.572 4.132,5.8494 4.132,9.832 0,2.7547 -0.71467,5.2027 -2.14133,7.3414 -1.42667,2.14 -3.16134,3.7173 -5.20134,4.7293 -2.04133,1.0133 -4.15733,1.52 -6.348,1.52 -2.18933,0 -4.31466,-0.5387 -6.37066,-1.6187 -2.05734,-1.0786 -3.792,-2.6706 -5.20133,-4.7786 -1.412,-2.1067 -2.11734,-4.488 -2.11734,-7.1427 0,-3.984 1.39467,-7.2693 4.18267,-9.8573" /><path
       id="path206"
       style="fill:#ffffff;fill-opacity:1;fill-rule:nonzero;stroke:none;stroke-width:0.133333"
       d="m 814.81901,1202.1868 c 1.06133,0.8147 2.14,1.22 3.236,1.22 1.09467,0 2.18933,-0.4146 3.28533,-1.244 1.09467,-0.8293 1.64267,-2.0573 1.64267,-3.684 0,-1.6253 -0.51467,-2.8373 -1.54267,-3.6346 -1.03066,-0.7947 -2.14133,-1.1934 -3.336,-1.1934 -1.19466,0 -2.30666,0.4147 -3.33466,1.2454 -1.02934,0.8293 -1.544,2.0493 -1.544,3.6573 0,1.6107 0.53066,2.8213 1.59333,3.6333 m -6.22267,-13.4146 c 2.788,-2.5894 5.97467,-3.8827 9.55734,-3.8827 3.58533,0 6.75333,1.2867 9.508,3.8573 2.75466,2.572 4.132,5.8494 4.132,9.832 0,2.7547 -0.71334,5.2027 -2.14,7.3414 -1.428,2.14 -3.16134,3.7173 -5.20267,4.7293 -2.04133,1.0133 -4.156,1.52 -6.34667,1.52 -2.19066,0 -4.31466,-0.5387 -6.372,-1.6187 -2.05733,-1.0786 -3.792,-2.6706 -5.20133,-4.7786 -1.41067,-2.1067 -2.11467,-4.488 -2.11467,-7.1427 0,-3.984 1.39334,-7.2693 4.18,-9.8573" /><path
       id="path208"
       style="fill:#ffffff;fill-opacity:1;fill-rule:nonzero;stroke:none;stroke-width:0.133333"
       d="m 850.46034,1198.5788 6.62134,5.476 c 0.828,0.696 1.35066,1.228 1.56666,1.592 0.21467,0.3667 0.324,0.7147 0.324,1.0454 0,0.7973 -0.51466,1.876 -1.544,3.236 -1.128,1.3946 -2.124,2.0906 -2.98666,2.0906 -0.72934,0 -1.74134,-0.48 -3.036,-1.4426 l -0.49734,-0.3494 c -0.76533,-0.6293 -1.94133,-1.7333 -3.53466,-3.3093 -1.59334,-1.576 -2.80534,-2.696 -3.63467,-3.36 v 3.832 c 0,0.764 -0.024,1.3373 -0.0747,1.7173 -0.0493,0.3827 -0.208,0.8214 -0.472,1.3187 -0.432,0.864 -1.71066,1.2947 -3.83333,1.2947 -2.09067,0 -3.36933,-0.448 -3.83333,-1.344 -0.23334,-0.4974 -0.37334,-0.9374 -0.42267,-1.3187 -0.0507,-0.3827 -0.0747,-0.9533 -0.0747,-1.7173 v -29.8187 c 0,-0.7627 0.024,-1.336 0.0747,-1.7173 0.0493,-0.38 0.18933,-0.8214 0.42267,-1.3187 0.464,-0.896 1.75866,-1.344 3.884,-1.344 1.592,0 2.72,0.2827 3.384,0.8467 0.564,0.4653 0.86266,1.1946 0.896,2.1893 0.0333,0.2987 0.0493,0.764 0.0493,1.3933 v 15.7814 c 0.59867,-0.4974 1.50133,-1.344 2.71333,-2.5387 1.212,-1.1947 2.116,-2.0413 2.71334,-2.5387 l 0.59733,-0.3986 c 1.16133,-0.896 2.15733,-1.344 2.98667,-1.344 0.82933,0 1.784,0.672 2.86266,2.016 1.07734,1.344 1.61734,2.3986 1.61734,3.1613 0,0.7627 -0.61467,1.6587 -1.84134,2.6867 l -4.928,4.1826" /><path
       id="path210"
       style="fill:#714aa9;fill-opacity:1;fill-rule:nonzero;stroke:none;stroke-width:0.133333"
       d="M 1164.7257,1274.6615 H 539.62968 v -77.724 h 91.356 v 10.3533 c 0,0.764 0.024,1.3427 0.0747,1.7414 0.0493,0.3986 0.20667,0.8466 0.47333,1.344 0.464,0.896 1.724,1.344 3.78267,1.344 2.12267,0 3.41733,-0.448 3.88267,-1.344 0.26533,-0.4974 0.42266,-0.928 0.472,-1.2947 0.0507,-0.364 0.076,-0.9453 0.076,-1.7413 v -10.4027 h 4.548 c 2.58399,3.4173 5.97999,7.9307 10.18666,13.5387 0.33067,0.4306 0.74667,0.7466 1.244,0.9453 0.49867,0.1987 1.39467,0.2987 2.688,0.2987 2.12267,0 3.41733,-0.448 3.884,-1.344 0.264,-0.4974 0.42267,-0.928 0.472,-1.2947 0.0493,-0.364 0.0747,-0.9453 0.0747,-1.7413 v -10.4027 h 3.32266 c -0.0587,0.5493 -0.088,1.1133 -0.088,1.692 0,2.6547 0.704,5.036 2.11467,7.1427 1.412,2.108 3.144,3.7 5.20267,4.7786 2.05733,1.08 4.18133,1.6187 6.372,1.6187 2.19066,0 4.30533,-0.5067 6.34666,-1.52 2.04,-1.012 3.77467,-2.5893 5.20134,-4.7293 1.42666,-2.1387 2.14133,-4.5867 2.14133,-7.3414 0,-0.5613 -0.0267,-1.108 -0.0827,-1.6413 h 5.90667 v 4.5293 c 0,3.716 0.896,6.3547 2.68933,7.9147 1.792,1.56 4.412,2.3387 7.86534,2.3387 0.728,0 1.284,-0.025 1.66533,-0.075 0.38267,-0.049 0.82267,-0.1907 1.32,-0.4227 0.928,-0.4653 1.39333,-1.7426 1.39333,-3.8333 0,-1.792 -0.38133,-2.904 -1.14533,-3.3347 -0.464,-0.2666 -0.904,-0.4226 -1.31867,-0.4733 -0.41466,-0.051 -1.012,-0.076 -1.792,-0.076 -0.78,0 -1.31066,-0.1973 -1.592,-0.596 -0.28266,-0.3987 -0.424,-1.0453 -0.424,-1.94 v -4.032 h 8.7 c -0.0587,0.5787 -0.088,1.1747 -0.088,1.7907 0,3.3186 1.04534,6.3226 3.136,9.0106 1.06134,1.3934 2.54667,2.512 4.456,3.3587 1.90667,0.848 4.088,1.2693 6.54534,1.2693 7.068,0 10.60266,-1.4746 10.60266,-4.4293 0,-0.6307 -0.21733,-1.3947 -0.64666,-2.2907 -0.76534,-1.4933 -1.676,-2.24 -2.73867,-2.24 -0.53067,0 -1.19467,0.1827 -1.99067,0.5467 l -0.548,0.2 c -1.09466,0.3987 -2.60533,0.5973 -4.52933,0.5973 -1.096,0 -2.19067,-0.3146 -3.28533,-0.9453 -1.096,-0.6307 -1.64267,-1.4093 -1.64267,-2.3387 h 11.79733 c 1.22667,0 2.34667,-0.4906 3.36,-1.4693 0.752,-0.7267 1.224,-1.7467 1.41734,-3.06 h 3.33733 v 10.3533 c 0,0.764 0.024,1.3347 0.0747,1.7174 0.0493,0.3813 0.19066,0.8213 0.42266,1.3186 0.464,0.896 1.74267,1.344 3.83334,1.344 2.58933,0 4.01466,-0.8133 4.28133,-2.4386 1.19333,1.592 3.20133,2.388 6.02267,2.388 2.82133,0 5.45866,-1.3014 7.91466,-3.9067 2.456,-2.6053 3.684,-5.6427 3.684,-9.1093 0,-0.5667 -0.0333,-1.1227 -0.0987,-1.6667 h 2.676 c -0.0587,0.5493 -0.0893,1.1133 -0.0893,1.692 0,2.6547 0.70534,5.036 2.11734,7.1427 1.40933,2.108 3.14399,3.7 5.20133,4.7786 2.056,1.08 4.18133,1.6187 6.37066,1.6187 2.19067,0 4.30667,-0.5067 6.348,-1.52 2.04,-1.012 3.77467,-2.5893 5.20134,-4.7293 1.42666,-2.1387 2.14133,-4.5867 2.14133,-7.3414 0,-0.5613 -0.028,-1.108 -0.0827,-1.6413 h 2.66 c -0.0587,0.5493 -0.088,1.1133 -0.088,1.692 0,2.6547 0.704,5.036 2.11467,7.1427 1.40933,2.108 3.144,3.7 5.20133,4.7786 2.05734,1.08 4.18134,1.6187 6.372,1.6187 2.19067,0 4.30534,-0.5067 6.34667,-1.52 2.04133,-1.012 3.77467,-2.5893 5.20267,-4.7293 1.42666,-2.1387 2.14,-4.5867 2.14,-7.3414 0,-0.5613 -0.0267,-1.108 -0.0813,-1.6413 h 3.316 v 10.4027 c 0,0.764 0.024,1.3346 0.0747,1.7173 0.0493,0.3813 0.18933,0.8213 0.42267,1.3187 0.464,0.896 1.74266,1.344 3.83333,1.344 2.12267,0 3.40133,-0.4307 3.83333,-1.2947 0.264,-0.4973 0.42267,-0.936 0.472,-1.3187 0.0507,-0.38 0.0747,-0.9533 0.0747,-1.7173 v -3.832 c 0.82933,0.664 2.04133,1.784 3.63467,3.36 1.59333,1.576 2.76933,2.68 3.53466,3.3093 l 0.49734,0.3494 c 1.29466,0.9626 2.30666,1.4426 3.036,1.4426 0.86266,0 1.85866,-0.696 2.98666,-2.0906 1.02934,-1.36 1.544,-2.4387 1.544,-3.236 0,-0.3307 -0.10933,-0.6787 -0.324,-1.0454 -0.216,-0.364 -0.73866,-0.896 -1.56666,-1.592 l -6.62134,-5.476 1.93467,-1.6413 h 326.91466 v 63.14 c 0,8.0533 -6.5294,14.584 -14.584,14.584 m -655.12665,0 h -81.68533 v -77.724 h 81.68533 v 77.7267 m -111.716,0 h -73.896 c -8.05333,0 -14.58266,-6.5307 -14.58266,-14.584 v -63.14 h 88.47866 v 77.7267" /><path
       id="path212"
       style="fill:#e9e8e7;fill-opacity:1;fill-rule:nonzero;stroke:none;stroke-width:0.133333"
       d="m 427.91369,1274.6615 h -30.03067 v 0 -77.7267 h 30.03067 v 77.7267" /><path
       id="path214"
       style="fill:#e9e8e7;fill-opacity:1;fill-rule:nonzero;stroke:none;stroke-width:0.133333"
       d="m 539.62968,1274.6615 h -30.03066 v 0 -77.7267 h 30.03066 v 77.7267" /><path
       id="path216"
       style="fill:#714aa9;fill-opacity:1;fill-rule:nonzero;stroke:none;stroke-width:0.133333"
       d="m 679.71768,1203.4068 c -1.09467,0 -2.17467,-0.4053 -3.23467,-1.22 -1.06266,-0.812 -1.59333,-2.0226 -1.59333,-3.6333 0,-0.5907 0.0693,-1.1307 0.208,-1.616 h 9.36267 c 0.124,0.464 0.18533,0.9773 0.18533,1.5413 0,1.6267 -0.54667,2.8547 -1.64133,3.684 -1.09467,0.8294 -2.19067,1.244 -3.28667,1.244 m 79.2,-0.448 c -1.22933,0 -2.24933,-0.448 -3.06133,-1.3426 -0.81467,-0.896 -1.22,-1.884 -1.22,-2.9627 0,-0.5947 0.11866,-1.1667 0.356,-1.716 h 8.008 c 0.23066,0.5373 0.34666,1.1013 0.34666,1.692 0,1.0947 -0.43066,2.0907 -1.29333,2.9867 -0.864,0.8946 -1.90933,1.3426 -3.136,1.3426" /><path
       id="path218"
       style="fill:#e9e8e7;fill-opacity:1;fill-rule:nonzero;stroke:none;stroke-width:0.133333"
       d="m 658.41368,1211.7202 c -1.29333,0 -2.18933,-0.1 -2.688,-0.2987 -0.49733,-0.1987 -0.91333,-0.5147 -1.244,-0.9453 -4.20667,-5.608 -7.60267,-10.1214 -10.18666,-13.5387 h 18.54933 v 10.4027 c 0,0.796 -0.0253,1.3773 -0.0747,1.7413 -0.0493,0.3667 -0.208,0.7973 -0.472,1.2947 -0.46667,0.896 -1.76133,1.344 -3.884,1.344 m -23.09733,0 c -2.05867,0 -3.31867,-0.448 -3.78267,-1.344 -0.26666,-0.4974 -0.424,-0.9454 -0.47333,-1.344 -0.0507,-0.3987 -0.0747,-0.9774 -0.0747,-1.7414 v -10.3533 h 8.76134 v 10.4027 c 0,0.796 -0.0253,1.3773 -0.076,1.7413 -0.0493,0.3667 -0.20667,0.7973 -0.472,1.2947 -0.46534,0.896 -1.76,1.344 -3.88267,1.344" /><path
       id="path220"
       style="fill:#e9e8e7;fill-opacity:1;fill-rule:nonzero;stroke:none;stroke-width:0.133333"
       d="m 679.76835,1212.1695 c -2.19067,0 -4.31467,-0.5387 -6.372,-1.6187 -2.05867,-1.0786 -3.79067,-2.6706 -5.20267,-4.7786 -1.41067,-2.1067 -2.11467,-4.488 -2.11467,-7.1427 0,-0.5787 0.0293,-1.1427 0.088,-1.692 h 8.93067 c -0.13867,0.4853 -0.208,1.0253 -0.208,1.616 0,1.6107 0.53067,2.8213 1.59333,3.6333 1.06,0.8147 2.14,1.22 3.23467,1.22 1.096,0 2.192,-0.4146 3.28667,-1.244 1.09466,-0.8293 1.64133,-2.0573 1.64133,-3.684 0,-0.564 -0.0613,-1.0773 -0.18533,-1.5413 h 8.91466 c 0.056,0.5333 0.0827,1.08 0.0827,1.6413 0,2.7547 -0.71467,5.2027 -2.14133,7.3414 -1.42667,2.14 -3.16134,3.7173 -5.20134,4.7293 -2.04133,1.0133 -4.156,1.52 -6.34666,1.52" /><path
       id="path222"
       style="fill:#e9e8e7;fill-opacity:1;fill-rule:nonzero;stroke:none;stroke-width:0.133333"
       d="m 709.83635,1211.7202 c -3.45334,0 -6.07334,-0.7787 -7.86534,-2.3387 -1.79333,-1.56 -2.68933,-4.1987 -2.68933,-7.9147 v -4.5293 h 8.66133 v 4.032 c 0,0.8947 0.14134,1.5413 0.424,1.94 0.28134,0.3987 0.812,0.596 1.592,0.596 0.78,0 1.37734,0.025 1.792,0.076 0.41467,0.051 0.85467,0.2067 1.31867,0.4733 0.764,0.4307 1.14533,1.5427 1.14533,3.3347 0,2.0907 -0.46533,3.368 -1.39333,3.8333 -0.49733,0.232 -0.93733,0.3734 -1.32,0.4227 -0.38133,0.049 -0.93733,0.075 -1.66533,0.075" /><path
       id="path224"
       style="fill:#e9e8e7;fill-opacity:1;fill-rule:nonzero;stroke:none;stroke-width:0.133333"
       d="m 730.69235,1212.3668 c -2.45734,0 -4.63867,-0.4213 -6.54534,-1.2693 -1.90933,-0.8467 -3.39466,-1.9653 -4.456,-3.3587 -2.09066,-2.688 -3.136,-5.692 -3.136,-9.0106 0,-0.616 0.0293,-1.212 0.088,-1.7907 h 25.84534 c -0.19334,1.3133 -0.66534,2.3333 -1.41734,3.06 -1.01333,0.9787 -2.13333,1.4693 -3.36,1.4693 h -11.79733 c 0,0.9294 0.54667,1.708 1.64267,2.3387 1.09466,0.6307 2.18933,0.9453 3.28533,0.9453 1.924,0 3.43467,-0.1986 4.52933,-0.5973 l 0.548,-0.2 c 0.796,-0.364 1.46,-0.5467 1.99067,-0.5467 1.06267,0 1.97333,0.7467 2.73867,2.24 0.42933,0.896 0.64666,1.66 0.64666,2.2907 0,2.9547 -3.53466,4.4293 -10.60266,4.4293" /><path
       id="path226"
       style="fill:#e9e8e7;fill-opacity:1;fill-rule:nonzero;stroke:none;stroke-width:0.133333"
       d="m 750.15635,1211.6708 c -2.09067,0 -3.36934,-0.448 -3.83334,-1.344 -0.232,-0.4973 -0.37333,-0.9373 -0.42266,-1.3186 -0.0507,-0.3827 -0.0747,-0.9534 -0.0747,-1.7174 v -10.3533 h 9.16667 c -0.23734,0.5493 -0.356,1.1213 -0.356,1.716 0,1.0787 0.40533,2.0667 1.22,2.9627 0.812,0.8946 1.832,1.3426 3.06133,1.3426 1.22667,0 2.272,-0.448 3.136,-1.3426 0.86267,-0.896 1.29333,-1.892 1.29333,-2.9867 0,-0.5907 -0.116,-1.1547 -0.34666,-1.692 h 8.96 c 0.0653,0.544 0.0987,1.1 0.0987,1.6667 0,3.4666 -1.228,6.504 -3.684,9.1093 -2.456,2.6053 -5.09333,3.9067 -7.91466,3.9067 -2.82134,0 -4.82934,-0.796 -6.02267,-2.388 -0.26667,1.6253 -1.692,2.4386 -4.28133,2.4386" /><path
       id="path228"
       style="fill:#714aa9;fill-opacity:1;fill-rule:nonzero;stroke:none;stroke-width:0.133333"
       d="m 818.05501,1203.4068 c -1.096,0 -2.17467,-0.4053 -3.236,-1.22 -1.06267,-0.812 -1.59333,-2.0226 -1.59333,-3.6333 0,-0.5907 0.0693,-1.1307 0.20933,-1.616 h 9.36133 c 0.124,0.464 0.18667,0.9773 0.18667,1.5413 0,1.6267 -0.548,2.8547 -1.64267,3.684 -1.096,0.8294 -2.19066,1.244 -3.28533,1.244 m -29.86667,0 c -1.096,0 -2.176,-0.4053 -3.23733,-1.22 -1.06267,-0.812 -1.59333,-2.0226 -1.59333,-3.6333 0,-0.5907 0.0707,-1.1307 0.20933,-1.616 h 9.36133 c 0.124,0.464 0.18667,0.9773 0.18667,1.5413 0,1.6267 -0.54667,2.8547 -1.64267,3.684 -1.09466,0.8294 -2.18933,1.244 -3.284,1.244" /><path
       id="path230"
       style="fill:#e9e8e7;fill-opacity:1;fill-rule:nonzero;stroke:none;stroke-width:0.133333"
       d="m 788.23634,1212.1695 c -2.18933,0 -4.31466,-0.5387 -6.37066,-1.6187 -2.05734,-1.0786 -3.792,-2.6706 -5.20133,-4.7786 -1.412,-2.1067 -2.11734,-4.488 -2.11734,-7.1427 0,-0.5787 0.0307,-1.1427 0.0893,-1.692 h 8.93066 c -0.13867,0.4853 -0.20933,1.0253 -0.20933,1.616 0,1.6107 0.53066,2.8213 1.59333,3.6333 1.06133,0.8147 2.14133,1.22 3.23733,1.22 1.09467,0 2.18934,-0.4146 3.284,-1.244 1.096,-0.8293 1.64267,-2.0573 1.64267,-3.684 0,-0.564 -0.0627,-1.0773 -0.18667,-1.5413 h 8.916 c 0.0547,0.5333 0.0827,1.08 0.0827,1.6413 0,2.7547 -0.71467,5.2027 -2.14133,7.3414 -1.42667,2.14 -3.16134,3.7173 -5.20134,4.7293 -2.04133,1.0133 -4.15733,1.52 -6.348,1.52" /><path
       id="path232"
       style="fill:#e9e8e7;fill-opacity:1;fill-rule:nonzero;stroke:none;stroke-width:0.133333"
       d="m 818.10434,1212.1695 c -2.19066,0 -4.31466,-0.5387 -6.372,-1.6187 -2.05733,-1.0786 -3.792,-2.6706 -5.20133,-4.7786 -1.41067,-2.1067 -2.11467,-4.488 -2.11467,-7.1427 0,-0.5787 0.0293,-1.1427 0.088,-1.692 h 8.93067 c -0.14,0.4853 -0.20933,1.0253 -0.20933,1.616 0,1.6107 0.53066,2.8213 1.59333,3.6333 1.06133,0.8147 2.14,1.22 3.236,1.22 1.09467,0 2.18933,-0.4146 3.28533,-1.244 1.09467,-0.8293 1.64267,-2.0573 1.64267,-3.684 0,-0.564 -0.0627,-1.0773 -0.18667,-1.5413 h 8.916 c 0.0547,0.5333 0.0813,1.08 0.0813,1.6413 0,2.7547 -0.71334,5.2027 -2.14,7.3414 -1.428,2.14 -3.16134,3.7173 -5.20267,4.7293 -2.04133,1.0133 -4.156,1.52 -6.34667,1.52" /><path
       id="path234"
       style="fill:#e9e8e7;fill-opacity:1;fill-rule:nonzero;stroke:none;stroke-width:0.133333"
       d="m 854.44168,1212.0188 c -0.72934,0 -1.74134,-0.48 -3.036,-1.4426 l -0.49734,-0.3494 c -0.76533,-0.6293 -1.94133,-1.7333 -3.53466,-3.3093 -1.59334,-1.576 -2.80534,-2.696 -3.63467,-3.36 v 3.832 c 0,0.764 -0.024,1.3373 -0.0747,1.7173 -0.0493,0.3827 -0.208,0.8214 -0.472,1.3187 -0.432,0.864 -1.71066,1.2947 -3.83333,1.2947 -2.09067,0 -3.36933,-0.448 -3.83333,-1.344 -0.23334,-0.4974 -0.37334,-0.9374 -0.42267,-1.3187 -0.0507,-0.3827 -0.0747,-0.9533 -0.0747,-1.7173 v -10.4027 h 17.36667 l -1.93467,1.6413 6.62134,5.476 c 0.828,0.696 1.35066,1.228 1.56666,1.592 0.21467,0.3667 0.324,0.7147 0.324,1.0454 0,0.7973 -0.51466,1.876 -1.544,3.236 -1.128,1.3946 -2.124,2.0906 -2.98666,2.0906" /><path
       id="path236"
       style="fill:#bebdbb;fill-opacity:1;fill-rule:nonzero;stroke:none;stroke-width:0.133333"
       d="m 888.10834,1076.0122 c 0,0 51.396,-188.17069 243.39596,-185.63735 L 888.10834,1076.0122" /><path
       id="path238"
       style="fill:#ffffff;fill-opacity:1;fill-rule:nonzero;stroke:none;stroke-width:0.133333"
       d="m 577.36568,1100.6068 v -75.5786 c 0,-2.0987 1.70267,-3.8014 3.80267,-3.8014 h 215.75333 c 38.18666,0 73.256,21.0694 91.18666,54.7854 l -47.39466,24.5946 h -263.348" /><path
       id="path240"
       style="fill:#e9e8e7;fill-opacity:1;fill-rule:nonzero;stroke:none;stroke-width:0.133333"
       d="m 873.28701,1083.3255 c -30.86667,-26.3613 -104.07333,-35.4147 -166.476,-38.0773 13.99734,-0.029 28.16,-0.048 41.62,-0.048 32.19733,0 60.328,0.1053 72.26133,0.4213 35.80134,0.952 52.59467,37.704 52.59467,37.704 m -269.94133,-37.704 c 0,0 23.09067,-1.3493 56.10533,-1.3493 14.28267,0 30.42134,0.2533 47.36,0.976 -52.976,0.1106 -103.46533,0.3733 -103.46533,0.3733" /><path
       id="path242"
       style="fill:#e9e8e7;fill-opacity:1;fill-rule:nonzero;stroke:none;stroke-width:0.133333"
       d="m 861.80168,1088.7122 -100.04,-22.2054 c 76.99066,3.4587 100.04,22.2054 100.04,22.2054" /><path
       id="path244"
       style="fill:#ffffff;fill-opacity:1;fill-rule:nonzero;stroke:none;stroke-width:0.133333"
       d="m 1198.851,1100.6068 v -76.1826 c 0,-1.7654 -1.432,-3.1974 -3.1987,-3.1974 H 979.29501 c -38.18667,0 -73.256,21.0694 -91.18667,54.7854 l 47.39333,24.5946 H 1198.851" /><path
       id="path246"
       style="fill:#e9e8e7;fill-opacity:1;fill-rule:nonzero;stroke:none;stroke-width:0.133333"
       d="m 914.41501,1088.7122 c 0,0 23.04933,-18.7467 100.03999,-22.2054 l -100.03999,22.2054" /><path
       id="path248"
       style="fill:#352567;fill-opacity:1;fill-rule:nonzero;stroke:none;stroke-width:0.133333"
       d="m 1215.743,1109.2682 c 0,4.7866 -3.88,8.6666 -8.6667,8.6666 H 931.91634 c -2.30667,0 -4.50667,-0.9066 -6.13333,-2.5333 l -11.01334,-11.0133 c -14.70666,-14.7067 -38.62666,-14.7067 -53.33333,0 l -11,11.0133 c -1.62666,1.6267 -3.84,2.5333 -6.13333,2.5333 H 569.12968 c -4.78666,0 -8.66666,-3.88 -8.66666,-8.6666 0,-0.9067 0.14666,-1.7867 0.4,-2.6134 1.10666,-3.5066 4.38666,-6.0533 8.26666,-6.0533 h 271.58666 l 8.46667,-8.4667 c 10.4,-10.4 24.22667,-16.12 38.92,-16.12 14.70667,0 28.53333,5.72 38.92,16.12 l 8.48,8.4667 h 271.57329 c 3.88,0 7.16,2.5467 8.2667,6.0533 0.2533,0.8267 0.4,1.7067 0.4,2.6134" /><path
       id="path250"
       style="fill:#362b6c;fill-opacity:1;fill-rule:nonzero;stroke:none;stroke-width:0.133333"
       d="m 1215.343,1106.6548 c -1.1067,3.5067 -4.3867,6.0534 -8.2667,6.0534 H 931.91634 c -2.30667,0 -4.50667,-0.9067 -6.13333,-2.5334 l -11.01334,-11.0133 c -14.70666,-14.7067 -38.62666,-14.7067 -53.33333,0 l -11,11.0133 c -1.62666,1.6267 -3.84,2.5334 -6.13333,2.5334 H 569.12968 c -3.88,0 -7.16,-2.5467 -8.26666,-6.0534 1.10666,-3.5066 4.38666,-6.0533 8.26666,-6.0533 h 271.58666 l 8.46667,-8.4667 c 10.4,-10.4 24.22667,-16.12 38.92,-16.12 14.70667,0 28.53333,5.72 38.92,16.12 l 8.48,8.4667 h 271.57329 c 3.88,0 7.16,2.5467 8.2667,6.0533" /><path
       id="path252"
       style="fill:#e9e8e7;fill-opacity:1;fill-rule:nonzero;stroke:none;stroke-width:0.133333"
       d="m 577.36568,1037.4455 v -1.328 h 38.17867 l -38.17867,1.328" /><path
       id="path254"
       style="fill:#5c342d;fill-opacity:1;fill-rule:nonzero;stroke:none;stroke-width:0.133333"
       d="m 605.58035,822.51752 c 3.18667,8.53866 12.268,16.65733 20.43467,20.70266 0.62266,-10.74 -3.056,-22.45733 -5.87867,-32.83866 -0.812,-2.992 -1.80133,-6.01734 -3.70533,-8.46534 -1.62267,-2.08533 -4.75467,-4.89466 -7.42267,-5.492 -2.944,-0.66 -3.80667,1.68534 -4.50933,4.17734 -1.99734,7.084 -1.47867,15.052 1.08133,21.916" /><path
       id="path256"
       style="fill:#779ac2;fill-opacity:1;fill-rule:nonzero;stroke:none;stroke-width:0.133333"
       d="m 610.41102,1091.9362 -7.92,17.8186 c 0,0 19.168,8.132 45.40933,-3.1706 l 0.188,-20.6014 c 0,0 -11.22133,-6.3213 -37.67733,5.9534" /><path
       id="path258"
       style="fill:#f7d4c1;fill-opacity:1;fill-rule:nonzero;stroke:none;stroke-width:0.133333"
       d="m 660.40701,1061.4255 c -6.18666,13.6933 -12.32,24.56 -12.32,24.56 -15.06666,-3.4933 -37.67999,5.9467 -37.67999,5.9467 l -0.132,-0.76 c -0.988,-5.8667 -1.08134,-16.76 -0.788,-28.5734 0.6,-22.8666 2.66666,-49.16 2.66666,-49.16 13.94667,-4.12 60,-0.6533 60,-0.6533 3.74667,10.2533 -4.04,31.6267 -11.74667,48.64" /><path
       id="path260"
       style="fill:#f5ab22;fill-opacity:1;fill-rule:nonzero;stroke:none;stroke-width:0.133333"
       d="m 663.87635,884.93885 c 0,0 -31.604,13.648 -38.732,49.05466 0,0 1.42533,10.92934 29.94,9.26667 l -2.13867,67.01062 92.436,-1.4253 -1.42533,-69.14932 c 0,0 29.46533,-0.952 32.792,-5.94133 3.32666,-4.98934 -26.36667,-57.10134 -60.11334,-55.996 -33.748,1.10533 -52.75866,7.18 -52.75866,7.18" /><path
       id="path262"
       style="fill:#f7d4c1;fill-opacity:1;fill-rule:nonzero;stroke:none;stroke-width:0.133333"
       d="m 716.63501,892.41218 c -20.92133,13.30667 -35.28133,5.69333 -35.28133,5.69333 l -2.04,-4.72 c 7.21333,-0.8 22.628,-3.32 33.84,-10.66666 l 3.48133,9.69333" /><path
       id="path264"
       style="fill:#e6908d;fill-opacity:1;fill-rule:nonzero;stroke:none;stroke-width:0.133333"
       d="m 713.15368,882.71885 c -11.212,7.34666 -26.62667,9.86666 -33.84,10.66666 l -4.02667,-9.29333 35.64,-7.6 2.22667,6.22667" /><path
       id="path266"
       style="fill:#f7d4c1;fill-opacity:1;fill-rule:nonzero;stroke:none;stroke-width:0.133333"
       d="m 623.87635,769.79485 c 0,0 -24.396,37.06933 7.288,82.69333 0,0 -4.18933,11.21467 -1.268,18.376 4.04,9.90133 29.46533,20.59467 56.71333,16.15733 27.248,-4.43466 62.416,-17.42533 61.148,-68.11733 -1.26667,-50.69333 -15.696,-85.86133 -66.14533,-78.57466 -50.448,7.288 -57.736,29.46533 -57.736,29.46533" /><path
       id="path268"
       style="fill:#f7d4c1;fill-opacity:1;fill-rule:nonzero;stroke:none;stroke-width:0.133333"
       d="m 737.94168,1040.9988 c -2.28,10.24 -11.828,25.1067 -20.92133,37.5334 -0.64,-14.1067 -48,-30.72 -61.94667,-22.28 l -0.0133,0.013 c 6.21466,-19.12 15.08,-39.3467 15.08,-39.3467 8.38666,-4.2666 72.38666,3.3334 67.80133,24.08" /><path
       id="path270"
       style="fill:#779ac2;fill-opacity:1;fill-rule:nonzero;stroke:none;stroke-width:0.133333"
       d="m 729.69768,977.00285 c 0,0 -30.732,-21.228 -59.56267,39.91995 0,0 59.88,-0.632 67.80134,24.08 0,0 25.66266,-48.15729 -8.23867,-63.99995" /><path
       id="path272"
       style="fill:#779ac2;fill-opacity:1;fill-rule:nonzero;stroke:none;stroke-width:0.133333"
       d="m 665.04968,1009.1082 19.484,4.3306 c 0,0 18.772,-29.75595 18.17867,-29.75595 -0.59467,0 -20.67334,0.356 -21.86134,0 -1.188,-0.35734 -13.78666,-3.08934 -13.60666,-1.78267 0.18,1.30667 1.25066,14.496 1.13066,17.10933 -0.11866,2.61329 -3.32533,11.07329 -3.32533,11.07329 v -0.9746" /><path
       id="path274"
       style="fill:#779ac2;fill-opacity:1;fill-rule:nonzero;stroke:none;stroke-width:0.133333"
       d="m 698.80701,1101.5188 -3.8,2.5334 v 9.3466 c -0.92,0.24 -1.85333,0.4534 -2.78666,0.64 0.0547,-0.2533 0.0933,-0.5066 0.12,-0.76 0.14666,-1.72 -0.64,-3.4266 -1.8,-4.7066 -1.16,-1.2934 -2.66667,-2.2134 -4.18667,-3.04 -3.33333,-1.8267 -6.85333,-3.2934 -10.48,-4.3734 -6.56,-1.9733 -13.48,-2.72 -20.29333,-2.2266 -3.45334,0.24 -6.88,0.8133 -10.22667,1.7066 -0.58666,0.1467 -1.45333,0.2934 -2.28,0.52 -2.68,-6.1733 2.41334,-12.2933 3.61333,-12.9466 1.42667,-0.8 2.45334,-5.9467 2.45334,-5.9467 51.25333,-2.92 49.66666,19.2533 49.66666,19.2533" /><path
       id="path276"
       style="fill:#5267ba;fill-opacity:1;fill-rule:nonzero;stroke:none;stroke-width:0.133333"
       d="m 692.34035,1113.2788 c -0.0267,0.2534 -0.0653,0.5067 -0.12,0.76 -18.55867,3.7867 -39.70667,-2.5733 -46.64,-9.3466 -1.18667,-1.16 -1.98667,-2.3467 -2.50667,-3.5334 0.82667,-0.2266 1.69334,-0.3733 2.28,-0.52 3.34667,-0.8933 6.77333,-1.4666 10.22667,-1.7066 6.81333,-0.4934 13.73333,0.2533 20.29333,2.2266 3.62667,1.08 7.14667,2.5467 10.48,4.3734 1.52,0.8266 3.02667,1.7466 4.18667,3.04 1.16,1.28 1.94666,2.9866 1.8,4.7066" /><path
       id="path278"
       style="fill:#e7e7e6;fill-opacity:1;fill-rule:nonzero;stroke:none;stroke-width:0.133333"
       d="m 685.92035,1097.9068 c -5.24934,-4.0333 -11.86534,-6.1426 -18.47867,-5.96 -1.71333,0.048 -1.72,2.7147 0,2.6667 6.196,-0.1707 12.22133,1.8227 17.13333,5.596 0.576,0.4427 1.488,0.085 1.824,-0.4773 0.40934,-0.684 0.0907,-1.388 -0.47866,-1.8254" /><path
       id="path280"
       style="fill:#e7e7e6;fill-opacity:1;fill-rule:nonzero;stroke:none;stroke-width:0.133333"
       d="m 688.57368,1092.4322 c -5.27067,-4.8014 -12.25467,-7.4694 -19.39067,-7.3374 -1.71333,0.032 -1.72,2.6987 0,2.6667 6.42534,-0.12 12.748,2.2227 17.50534,6.556 1.26666,1.1533 3.15733,-0.7267 1.88533,-1.8853" /><path
       id="path282"
       style="fill:#ffffff;fill-opacity:1;fill-rule:nonzero;stroke:none;stroke-width:0.133333"
       d="m 717.02035,1078.5322 c -9.34667,12.7733 -18.21334,22.9866 -18.21334,22.9866 -2.85333,-21.1466 -49.66666,-19.2533 -49.66666,-19.2533 0.16133,-6.3467 2.68,-16.0267 5.92,-26 l 0.0133,-0.013 c 13.94667,-8.44 61.30667,8.1733 61.94667,22.28" /><path
       id="path284"
       style="fill:#779ac2;fill-opacity:1;fill-rule:nonzero;stroke:none;stroke-width:0.133333"
       d="m 612.15368,1013.4388 59.99867,-0.6546 c 0,0 16.35066,-45.44402 -23.012,-45.28669 -39.36267,0.15867 -36.98667,45.94129 -36.98667,45.94129" /><path
       id="path286"
       style="fill:#e7e7e6;fill-opacity:1;fill-rule:nonzero;stroke:none;stroke-width:0.133333"
       d="m 638.56968,1092.0748 c -6.556,-2.2133 -13.88666,-1.5013 -19.92666,1.8547 -1.50134,0.8333 -0.15734,3.1387 1.34533,2.3027 5.44933,-3.028 11.976,-3.5774 17.872,-1.5854 1.63067,0.5494 2.32933,-2.024 0.70933,-2.572" /><path
       id="path288"
       style="fill:#e7e7e6;fill-opacity:1;fill-rule:nonzero;stroke:none;stroke-width:0.133333"
       d="m 633.89235,1100.5562 c -4.48933,-0.86 -9.152,-0.504 -13.42267,1.1506 -0.67066,0.26 -1.136,0.896 -0.932,1.6414 0.17734,0.64 0.96534,1.192 1.64134,0.9306 3.81733,-1.48 7.97466,-1.9226 12.00533,-1.1506 0.70667,0.1346 1.43867,-0.1987 1.64,-0.932 0.17867,-0.652 -0.22,-1.504 -0.932,-1.64" /><path
       id="path290"
       style="fill:#ffffff;fill-opacity:1;fill-rule:nonzero;stroke:none;stroke-width:0.133333"
       d="m 609.48702,1062.5988 c 7.73333,-2.8533 26.18666,-7.68 50.91999,-1.1733 -6.18666,13.6933 -12.32,24.56 -12.32,24.56 -15.06666,-3.4933 -37.67999,5.9467 -37.67999,5.9467 l -0.132,-0.76 -0.788,-28.5734" /><path
       id="path292"
       style="fill:#f7d4c1;fill-opacity:1;fill-rule:nonzero;stroke:none;stroke-width:0.133333"
       d="m 625.14435,933.99351 c 0,0 -16.14133,38.46534 3.45333,49.41067 19.596,10.94533 26.46267,-13.53067 26.46267,-13.53067 l 0.024,-26.61333 c 0,0 -15.44533,2.61333 -29.94,-9.26667" /><path
       id="path294"
       style="fill:#f7d4c1;fill-opacity:1;fill-rule:nonzero;stroke:none;stroke-width:0.133333"
       d="m 775.70835,934.72018 c 0,0 17.19866,52.452 -17.02,46.084 -34.21734,-6.36667 -31.96,-14.25733 -31.96,-14.25733 l 8.04,-21.37467 h 9.3 l -0.112,-5.476 c 0,0 25.564,-1.55467 31.752,-4.976" /><path
       id="path296"
       style="fill:#424143;fill-opacity:1;fill-rule:nonzero;stroke:none;stroke-width:0.133333"
       d="m 691.50968,989.04284 -46.83733,-9.09733 c -0.98267,-0.19066 -1.692,-1.052 -1.692,-2.05333 v -55.46667 c 0,-1.28666 1.15067,-2.268 2.42133,-2.06533 l 46.108,7.376 v 61.30666" /><path
       id="path298"
       style="fill:#e7e7e6;fill-opacity:1;fill-rule:nonzero;stroke:none;stroke-width:0.133333"
       d="m 691.50968,927.73618 v -4.792 c 0,0 -19.79067,-7.48533 -39.03867,-6.77333 l -3.23466,4.80266 42.27333,6.76267" /><path
       id="path300"
       style="fill:#424143;fill-opacity:1;fill-rule:nonzero;stroke:none;stroke-width:0.133333"
       d="m 691.50968,989.04284 46.836,-9.09733 c 0.98267,-0.19066 1.69333,-1.052 1.69333,-2.05333 v -55.46667 c 0,-1.28666 -1.152,-2.268 -2.42266,-2.06533 l -46.10667,7.376 v 61.30666" /><path
       id="path302"
       style="fill:#e7e7e6;fill-opacity:1;fill-rule:nonzero;stroke:none;stroke-width:0.133333"
       d="m 691.50968,927.73618 v -4.792 c 0,0 19.79067,-7.48533 39.03867,-6.77333 l 3.23466,4.80266 -42.27333,6.76267" /><path
       id="path304"
       style="fill:#e7e7e6;fill-opacity:1;fill-rule:nonzero;stroke:none;stroke-width:0.133333"
       d="m 731.07768,948.29085 -28.74267,3.64266 c -1.49333,0.18934 -2.81466,-0.97466 -2.81466,-2.48 v -6.84133 c 0,-1.26 0.936,-2.32133 2.18533,-2.48133 l 28.74267,-3.64267 c 1.49333,-0.18933 2.81466,0.97467 2.81466,2.48 v 6.84133 c 0,1.26 -0.936,2.32134 -2.18533,2.48134" /><path
       id="path306"
       style="fill:#f7d4c1;fill-opacity:1;fill-rule:nonzero;stroke:none;stroke-width:0.133333"
       d="m 642.98035,936.92285 c 0,0 -4.688,2.02533 -5.796,15.77466 -1.10933,13.75067 5.796,22.87867 5.796,22.87867 0,0 23.51066,-0.43867 19.312,-17.028 -4.19734,-16.588 -19.312,-10.56533 -19.312,-10.56533 v -11.06" /><path
       id="path308"
       style="fill:#f7d4c1;fill-opacity:1;fill-rule:nonzero;stroke:none;stroke-width:0.133333"
       d="m 739.97368,939.45885 c 0,0 4.688,2.024 5.79733,15.77466 1.108,13.74934 -5.79733,22.87867 -5.79733,22.87867 0,0 -23.50933,-0.43867 -19.312,-17.02933 4.19733,-16.588 19.312,-10.56534 19.312,-10.56534 v -11.05866" /><path
       id="path310"
       style="fill:#e6908d;fill-opacity:1;fill-rule:nonzero;stroke:none;stroke-width:0.133333"
       d="m 701.80835,853.43085 c -5.716,6.47066 -13.41734,10.856 -21.89467,12.48266 -1.68267,0.324 -0.97067,2.89467 0.70933,2.572 8.88,-1.704 17.08534,-6.39333 23.07067,-13.168 1.13333,-1.28266 -0.74667,-3.17599 -1.88533,-1.88666" /><path
       id="path312"
       style="fill:#422622;fill-opacity:1;fill-rule:nonzero;stroke:none;stroke-width:0.133333"
       d="m 660.27768,847.44818 c -0.30933,-2.06 -0.62,-4.12 -0.93067,-6.18133 -0.36533,-2.42133 -3.54133,-3.97067 -5.74,-3.25867 -2.64133,0.85467 -3.65066,3.144 -3.26,5.74 0.31067,2.06 0.62134,4.12134 0.93067,6.18134 0.36533,2.42133 3.54133,3.972 5.74133,3.25866 2.64134,-0.85333 3.64934,-3.144 3.25867,-5.74" /><path
       id="path314"
       style="fill:#422622;fill-opacity:1;fill-rule:nonzero;stroke:none;stroke-width:0.133333"
       d="m 705.55235,839.87085 -1.468,-6.40667 c -0.544,-2.38133 -3.41467,-4.01066 -5.74,-3.25866 -2.492,0.808 -3.844,3.18933 -3.26,5.74133 0.48933,2.13467 0.97866,4.27067 1.468,6.40533 0.54533,2.38267 3.41466,4.012 5.74,3.26 2.492,-0.80666 3.844,-3.18933 3.26,-5.74133" /><path
       id="path316"
       style="fill:#6e4b36;fill-opacity:1;fill-rule:nonzero;stroke:none;stroke-width:0.133333"
       d="m 648.74701,809.17218 c -7.50399,-0.0173 -14.50533,2.852 -19.90666,8.04267 -5.58,5.36 2.912,13.83867 8.48533,8.484 3.16667,-3.04133 7.04534,-4.536 11.42133,-4.52667 7.72134,0.016 7.732,-11.984 0,-12" /><path
       id="path318"
       style="fill:#6e4b36;fill-opacity:1;fill-rule:nonzero;stroke:none;stroke-width:0.133333"
       d="m 710.69101,803.60952 c -7.072,-4.408 -15.45866,-5.56934 -23.49333,-3.43734 -7.456,1.97867 -4.29333,13.55734 3.19067,11.57067 5.05333,-1.34 9.828,-0.52533 14.24533,2.228 6.572,4.09867 12.60267,-6.28 6.05733,-10.36133" /><path
       id="path320"
       style="fill:#6e4b36;fill-opacity:1;fill-rule:nonzero;stroke:none;stroke-width:0.133333"
       d="m 748.12701,846.93218 c -1.04,1.32 -2.88,1.84 -4.54666,1.56 -3.14667,-0.53333 -3.58534,-3.4 -3.82667,-5.88 -0.64,-6.64 -2.18667,-12.22666 -2.812,-18.86666 2.75867,0.45333 5.55867,-1.30667 6.932,-3.73334 1.37333,-2.44 1.54667,-5.38666 1.13333,-8.16 -0.42666,-2.86666 -1.49333,-5.74666 -3.6,-7.74666 -1.07866,-1.04 -3.57333,-0.36 -5.96,0.86666 -2.57333,1.32 -5.72,0.16 -6.78533,-2.53333 -1.628,-4.2 -4.16133,-8.66667 -5.80133,-11.53333 -2.55867,-4.49334 -5.73334,-8.37334 -10.30667,-5.97334 -21.252,11.13334 -46.93333,12.37334 -68.49333,1.86667 -5.98667,10.57333 -19.04,16.62667 -30.96,14.36 -11.93333,-2.26667 -21.85333,-12.66667 -23.56,-24.69333 -0.34667,-2.45334 -0.36,-4.94667 -0.0933,-7.4 0.65333,-6.18667 3.10666,-12.22667 6.72,-17.33334 5.05333,-7.13333 12.24,-12.56 20.02666,-16.54666 19.56,-10.01334 45.54667,-10.6 66.22667,-3.16 -1.22667,-2.29334 -0.65334,-3.4 -1.88,-6.22667 -0.72,-1.66667 -0.82667,-3.58667 -0.0267,-5.21333 1.96,-3.97333 6.57333,-2.10667 7.93333,0.93333 1.09334,2.4 0.70667,5.18667 0.32,7.8 1.37334,-2.82667 2.76,-5.09333 5.97334,-6.29333 2.24,-0.84 4.82666,0.28 5.41333,2.6 0.2,0.82666 0.10667,1.58666 -0.212,2.26666 9.18533,-5.32 21.892,-4.73333 31.132,0.78667 10.70667,6.41333 16.08,18.81333 20.14667,30.61333 0.29333,0.85334 0.6,1.84 0.93333,2.97334 4.90667,17.08 12.34667,63.8 -4.02667,84.66666" /><path
       id="path322"
       style="fill:#5c342d;fill-opacity:1;fill-rule:nonzero;stroke:none;stroke-width:0.133333"
       d="m 748.12701,846.93218 c -1.04,1.32 -2.88,1.84 -4.54666,1.56 -3.14667,-0.53333 -3.58534,-3.4 -3.82667,-5.88 -0.64,-6.64 -2.18667,-12.22666 -2.812,-18.86666 2.75867,0.45333 5.55867,-1.30667 6.932,-3.73334 1.37333,-2.44 1.54667,-5.38666 1.13333,-8.16 -0.42666,-2.86666 -1.49333,-5.74666 -3.6,-7.74666 -1.07866,-1.04 -3.57333,-0.36 -5.96,0.86666 -2.57333,1.32 -5.72,0.16 -6.78533,-2.53333 -1.628,-4.2 -4.16133,-8.66667 -5.80133,-11.53333 -2.55867,-4.49334 -5.73334,-8.37334 -10.30667,-5.97334 -21.252,11.13334 -46.93333,12.37334 -68.49333,1.86667 -5.98667,10.57333 -19.04,16.62667 -30.96,14.36 -11.93333,-2.26667 -21.85333,-12.66667 -23.56,-24.69333 -0.34667,-2.45334 -0.36,-4.94667 -0.0933,-7.4 2.50666,2.64 5.77333,4.56 9.17333,5.92 12.08,4.84 26.62667,2.88 36.988,-4.98667 21.91866,10.97333 49.34533,11.18667 71.27866,0.24 4.09334,-2.04 8.25334,-4.50667 12.82667,-4.46667 2.32,0.0267 4.56133,0.70667 6.84,1.16 8.72133,1.74667 17.94667,-0.16 25.6,-4.66666 4.90667,17.08 12.34667,63.8 -4.02667,84.66666" /><path
       id="path324"
       style="fill:#7a53af;fill-opacity:1;fill-rule:nonzero;stroke:none;stroke-width:0.133333"
       d="m 163.87369,635.51885 c 0,7.98134 -6.46933,14.45067 -14.45066,14.45067 -7.98134,0 -14.45067,-6.46933 -14.45067,-14.45067 0,-7.98 6.46933,-14.45066 14.45067,-14.45066 7.98133,0 14.45066,6.47066 14.45066,14.45066" /><path
       id="path326"
       style="fill:#7a53af;fill-opacity:1;fill-rule:nonzero;stroke:none;stroke-width:0.133333"
       d="m 182.59103,563.67752 c 0,3.99067 -3.23467,7.22534 -7.22534,7.22534 -3.99066,0 -7.22533,-3.23467 -7.22533,-7.22534 0,-3.99066 3.23467,-7.22533 7.22533,-7.22533 3.99067,0 7.22534,3.23467 7.22534,7.22533" /></g></svg>
