<?xml version="1.0" encoding="UTF-8" standalone="no"?>
<svg
   viewBox="0 0 639.99998 639.99998"
   height="640"
   width="640"
   xml:space="preserve"
   id="svg2"
   version="1.1"
   sodipodi:docname="math.svg"
   inkscape:version="1.3 (0e150ed6c4, 2023-07-21)"
   xmlns:inkscape="http://www.inkscape.org/namespaces/inkscape"
   xmlns:sodipodi="http://sodipodi.sourceforge.net/DTD/sodipodi-0.dtd"
   xmlns="http://www.w3.org/2000/svg"
   xmlns:svg="http://www.w3.org/2000/svg"
   xmlns:rdf="http://www.w3.org/1999/02/22-rdf-syntax-ns#"
   xmlns:cc="http://creativecommons.org/ns#"
   xmlns:dc="http://purl.org/dc/elements/1.1/"><sodipodi:namedview
     id="namedview1"
     pagecolor="#ffffff"
     bordercolor="#000000"
     borderopacity="0.25"
     inkscape:showpageshadow="2"
     inkscape:pageopacity="0.0"
     inkscape:pagecheckerboard="0"
     inkscape:deskcolor="#d1d1d1"
     inkscape:zoom="0.87946406"
     inkscape:cx="320.64983"
     inkscape:cy="331.45186"
     inkscape:window-width="1920"
     inkscape:window-height="991"
     inkscape:window-x="-9"
     inkscape:window-y="-9"
     inkscape:window-maximized="1"
     inkscape:current-layer="svg2" /><metadata
     id="metadata8"><rdf:RDF><cc:Work
         rdf:about=""><dc:format>image/svg+xml</dc:format><dc:type
           rdf:resource="http://purl.org/dc/dcmitype/StillImage" /></cc:Work></rdf:RDF></metadata><defs
     id="defs6" /><g
     transform="matrix(0.60593437,0,0,-0.60593437,1.6783197,640)"
     id="g10"><g
       transform="scale(0.1)"
       id="g12"><path
         id="path14"
         style="fill:#31895f;fill-opacity:1;fill-rule:nonzero;stroke:none"
         d="m 1130.9,1266.08 c 35.32,82.4 61.31,166.43 61.31,235.56 0,216.61 -99.52,388.31 -99.52,388.31 -137.588,-109.32 -204.913,-364.89 -204.913,-364.89 0,0 -38.047,-301.5 -117.089,-43.91 -79.036,257.6 -331.79,365.9 -331.79,365.9 -56.628,-199.05 68.34,-471.28 74.2,-480.06 5.851,-8.78 70.254,-102.45 -20.496,-70.26 -90.743,32.21 -278.086,35.13 -278.086,35.13 111.242,-263.45 354.199,-336.63 354.199,-336.63 l 38.047,79.04 c 0,0 125.879,-172.711 143.437,-188.622 17.567,-15.91 187.344,36.403 187.344,36.403 0,0 58.633,83.649 119.637,194.509 -7.2,-77.68 12.09,-150.599 12.09,-150.599 l 81.95,23.418 c 0,0 245.89,208.391 351.27,396.911 0,0 -257.12,-35.63 -371.59,-120.21" /><path
         id="path16"
         style="fill:#41bc7e;fill-opacity:1;fill-rule:nonzero;stroke:none"
         d="m 782.395,1001.08 c 4.289,-13.971 -60.809,191.2 -75.426,472.09 -14.621,280.89 126.715,509.97 126.715,509.97 0,0 102.355,-264.48 136.476,-509.97 34.11,-245.49 -108.722,-685.772 -108.722,-685.772 0,0 123.75,517.282 223.512,678.182 96.41,155.5 375.79,298.23 375.79,298.23 0,0 -64.62,-467.18 -261.48,-683.57 C 1057.78,924.711 950.656,885.648 950.656,885.648 L 693.969,911.91 c 0,0 -485.274,308.7 -456.035,648.28 0,0 378.75,-18.1 544.461,-559.11" /><path
         id="path18"
         style="fill:#353e51;fill-opacity:1;fill-rule:nonzero;stroke:none"
         d="M 1033.6,284.602 H 668.18 c -102.16,0 -184.985,82.796 -184.985,185 l -58.933,550.388 h 316.804 508.244 l -30.73,-550.388 c 0,-102.204 -82.81,-185 -184.98,-185" /><path
         id="path20"
         style="fill:#d1f0f6;fill-opacity:1;fill-rule:nonzero;stroke:none"
         d="m 8765.76,4858.66 h -5820.7 v 5505.44 h 5820.7 V 4858.66" /><path
         id="path22"
         style="fill:#ed9b66;fill-opacity:1;fill-rule:nonzero;stroke:none"
         d="m 8765.76,4660.53 h -5820.7 v 198.13 h 5820.7 v -198.13" /><path
         id="path24"
         style="fill:#ea4957;fill-opacity:1;fill-rule:nonzero;stroke:none"
         d="m 4875.82,10364.1 c 0,0 465.44,-4749.02 -1930.76,-5505.44 v 5505.44 h 1930.76" /><path
         id="path26"
         style="fill:#b93440;fill-opacity:1;fill-rule:nonzero;stroke:none"
         d="m 4298.07,9509.62 c -5.04,119.97 355.22,-3646.87 -1353.01,-4650.96 v 0 c 0,0 1497.29,1211.15 1353.01,4650.96" /><path
         id="path28"
         style="fill:#b93440;fill-opacity:1;fill-rule:nonzero;stroke:none"
         d="m 3493.34,8477.68 c 0,0 265.61,-2628.69 -548.28,-3619.02 0,0 672.11,1348.74 548.28,3619.02" /><path
         id="path30"
         style="fill:#ed9b66;fill-opacity:1;fill-rule:nonzero;stroke:none"
         d="m 5939.31,4858.66 h -167.79 v 5505.44 h 167.79 V 4858.66" /><path
         id="path32"
         style="fill:#ed9b66;fill-opacity:1;fill-rule:nonzero;stroke:none"
         d="m 8765.76,10364.1 h -5820.7 v 198.1 h 5820.7 v -198.1" /><path
         id="path34"
         style="fill:#ea4957;fill-opacity:1;fill-rule:nonzero;stroke:none"
         d="m 6834.99,10364.1 c 0,0 -465.43,-4749.02 1930.77,-5505.44 V 10364.1 H 6834.99" /><path
         id="path36"
         style="fill:#b93440;fill-opacity:1;fill-rule:nonzero;stroke:none"
         d="m 7412.76,9509.62 c 5.03,119.97 -355.24,-3646.87 1353,-4650.96 v 0 c 0,0 -1497.29,1211.15 -1353,4650.96" /><path
         id="path38"
         style="fill:#b93440;fill-opacity:1;fill-rule:nonzero;stroke:none"
         d="m 8217.48,8477.68 c 0,0 -265.61,-2628.69 548.28,-3619.02 0,0 -672.11,1348.74 -548.28,3619.02" /><path
         id="path40"
         style="fill:#949aad;fill-opacity:1;fill-rule:nonzero;stroke:none"
         d="M 6942.73,1614.61 C 6793.36,1466.51 5973.18,106.398 5973.18,106.398 H 7183.67 L 6942.73,1614.61" /><path
         id="path42"
         style="fill:#bdc2d4;fill-opacity:1;fill-rule:nonzero;stroke:none"
         d="M 9070.4,107 H 7061.97 v 2961.13 c 0,121.55 98.53,220.09 220.08,220.09 h 1568.27 c 121.55,0 220.08,-98.54 220.08,-220.09 V 107" /><path
         id="path44"
         style="fill:#ffffff;fill-opacity:1;fill-rule:nonzero;stroke:none"
         d="m 4921.63,6516.94 c 0,0 139.03,-5.24 245.89,-210.76 106.86,-205.51 69.09,-720.09 69.09,-720.09 0,0 76.2,-444.94 6.48,-591.3 -69.72,-146.36 -75.57,-310.29 -321.46,-368.83 -245.88,-58.54 -761.08,-134.65 -761.08,-134.65 l -21.46,-753.27 c 0,0 -42.93,-146.36 -46.84,-134.66 -3.9,11.71 -407.85,821.58 -407.85,821.58 l -1241.14,-179.54 -366.89,-42.93 c 0,0 -323.29,-15.56 -402,304.43 -78.71,319.99 -128.8,1416.77 -128.8,1416.77 0,0 -6.47,292.73 550.32,374.69 556.8,81.96 2825.74,218.56 2825.74,218.56" /><path
         id="path46"
         style="fill:#41bc7e;fill-opacity:1;fill-rule:nonzero;stroke:none"
         d="m 4694.79,4606.69 -564.47,-83.35 c 1.66,-320.37 -2.85,-832.6 -48.64,-832.6 -59.65,0 -234.13,482.43 -334.76,775.98 l -1573.94,-232.4 c -235.06,-18.3 -439.83,149.48 -457.37,374.74 l -95.56,1227.49 c -15.83,203.37 143.37,381.62 355.58,398.14 l 2803.6,218.25 c 217.58,16.94 407.11,-138.35 423.34,-346.86 l 32.39,-894.55 c 24.06,-308.95 -217.79,-579.75 -540.17,-604.84 z m 614.16,582.52 -37.14,979.2 c -17.76,228.27 -217.23,398.91 -445.49,381.14 l -2647.47,-206.1 -293.9,-22.87 c -222.64,-17.34 -389.07,-211.87 -371.74,-434.51 l 104.61,-1343.83 c 19.21,-246.61 234.68,-430.97 481.3,-411.77 l 1580.12,238.14 c 82.11,-204.95 344.22,-842.26 428.28,-842.26 64.89,0 75.69,688.98 77.48,918.49 l 559.21,84.28 c 338.24,26.34 591.08,321.87 564.74,660.09" /><g
         transform="scale(10)"
         id="g48"><text
   id="text52"
   style="font-variant:normal;font-weight:600;font-size:98.986px;font-family:Montserrat;-inkscape-font-specification:Montserrat-SemiBold;writing-mode:lr-tb;fill:#51515e;fill-opacity:1;fill-rule:nonzero;stroke:none"
   transform="matrix(0.994452,0.105191,0.105191,-0.994452,230.458,496.358)"><tspan
     id="tspan50"
     y="0"
     x="0 57.607765 114.52511 172.13388">3+2=</tspan></text>&#10;</g><path
         id="path54"
         style="fill:#f6d8c9;fill-opacity:1;fill-rule:nonzero;stroke:none"
         d="M 10506.8,0 H 0.00390625 L 483.195,281.199 9441.8,333.602 10506.8,0" /><path
         id="path56"
         style="fill:#e39a9e;fill-opacity:1;fill-rule:nonzero;stroke:none"
         d="m 1819.07,1335.1 c 0,0 -322.2,-687.772 -421.72,-797.502 -99.53,-109.7 -896.877,-333.399 -867.6,-401.098 29.266,-67.6016 661.54,0 661.54,0 l 837.19,572.84 c 0,0 269.31,339.56 234.18,339.56 -35.13,0 -443.59,286.2 -443.59,286.2" /><path
         id="path58"
         style="fill:#fabbb7;fill-opacity:1;fill-rule:nonzero;stroke:none"
         d="m 2040.19,1113.3 c 0,0 -380.54,-614.698 -433.22,-649.8 C 1554.27,428.301 797.086,87 957.125,102.699 c 216.605,21.199 794.755,-39.3006 855.085,6.602 60.32,45.898 555.83,665.179 555.83,665.179 l -327.85,338.82" /><path
         id="path60"
         style="fill:#2b4d9f;fill-opacity:1;fill-rule:nonzero;stroke:none"
         d="m 6406.36,3566.63 -139.55,-62.11 c 0,0 -148.84,-181.64 -121.83,-180.47 27.03,1.17 113.52,19.56 113.52,19.56 l 147.86,223.02" /><path
         id="path62"
         style="fill:#3d59b1;fill-opacity:1;fill-rule:nonzero;stroke:none"
         d="m 6569.44,3752.62 c 0,0 -291.28,-185.94 -309.98,-265.49 -18.7,-79.54 8.6,-198.91 8.6,-198.91 l 368.55,353.02 -67.17,111.38" /><path
         id="path64"
         style="fill:#de999c;fill-opacity:1;fill-rule:nonzero;stroke:none"
         d="m 4985.17,2081.81 c 0,0 -444.96,176.35 -474.43,175.07 -29.48,-1.28 -361.89,-37.81 -355.48,-57.83 6.39,-20.02 25.07,-52.42 43.24,-53.48 18.16,-1.06 180.98,31.82 164.72,23.73 -16.26,-8.08 -156.67,-32.68 -159.66,-63.01 -2.99,-30.35 22.01,-57.35 22.01,-57.35 0,0 196.64,36.19 270.32,39.38 73.67,3.18 143.01,-21.49 143.01,-21.49 0,0 -79.82,9.46 -64.22,-30.46 15.61,-39.92 87.5,-81.1 152.36,-87.52 64.87,-6.42 237.84,-37.69 237.84,-37.69 l 20.29,170.65" /><path
         id="path66"
         style="fill:#2b4d9f;fill-opacity:1;fill-rule:nonzero;stroke:none"
         d="m 5855.41,2103.07 c -464.81,-51.69 -876.84,42.8 -933.54,34.3 -56.7,-8.51 -53.02,-280.35 -53.02,-280.35 l 712.51,-290.78 c 0,0 197.43,99.82 201.2,126.35 3.77,26.54 72.85,410.48 72.85,410.48" /><path
         id="path68"
         style="fill:#ebeae8;fill-opacity:1;fill-rule:nonzero;stroke:none"
         d="m 3718.03,3455.22 71.4,62.14 c 0,0 16.87,8.11 38.16,-57.4 21.29,-65.51 411.25,-1458.43 411.25,-1458.43 l -156.89,15.36 -176.44,282.07 -187.48,1156.26" /><path
         id="path70"
         style="fill:#d4d3d2;fill-opacity:1;fill-rule:nonzero;stroke:none"
         d="m 3574.58,2341.85 c 0,0 -338.89,1147.37 -317.72,1201.67 7.2,18.45 532.57,-26.16 532.57,-26.16 0,0 22.84,-72.83 92.18,-310.94 69.36,-238.11 360.42,-1278.56 360.42,-1278.56 0,0 -277.77,51.14 -358.18,89.89 -80.41,38.75 -309.27,324.1 -309.27,324.1" /><path
         id="path72"
         style="fill:#fabbb7;fill-opacity:1;fill-rule:nonzero;stroke:none"
         d="m 6391.64,3906.75 c 11.53,-10.57 153.4,-133.59 164.09,-380.4 l 352.72,292.05 -135.41,400.11 -381.4,-311.76" /><path
         id="path74"
         style="fill:#22223b;fill-opacity:1;fill-rule:nonzero;stroke:none"
         d="m 5600.85,1115.69 -227.63,517.83 c 0,0 -504.47,116.5 -1085.37,316.01 -739.76,254.06 -1489.89,592.29 -1683.68,484.68 C 2258.19,2242.1 1595.26,1365.04 1595.26,1365.04 c 0,0 161.46,-236.05 355.33,-394.97 l 368.42,252.82 c 0,0 967.99,373.32 997.89,364.77 29.89,-8.54 2131.41,-813.18 2131.41,-813.18 l 152.54,341.21" /><path
         id="path76"
         style="fill:#d4d3d2;fill-opacity:1;fill-rule:nonzero;stroke:none"
         d="m 4215.11,2006.71 c 0,0 1491.56,-397.11 1508.86,-412.97 17.29,-15.86 13.92,-65.83 2.95,-68.15 -10.97,-2.32 -1526.85,417.03 -1526.85,417.03 l 15.04,64.09" /><path
         id="path78"
         style="fill:#282a4d;fill-opacity:1;fill-rule:nonzero;stroke:none"
         d="m 5888.02,1479.2 -507.98,138.78 c 0,0 -103.68,-53.78 -275.58,-61.22 -171.91,-7.44 -1783.82,1036.08 -2031.94,856.72 -248.11,-179.37 -1121.93,-1290.43 -1121.93,-1290.43 0,0 107.96,-249.222 381.69,-434.202 0,0 948.89,724.982 1036.86,738.642 C 3457.13,1441.13 4727.69,143 5064.65,88.6992 5401.61,34.3984 6105.9,133.699 6105.9,133.699 c 0,0 250.3,128.903 293.09,504.781 42.78,375.82 -510.97,840.72 -510.97,840.72" /><path
         id="path80"
         style="fill:#be737a;fill-opacity:1;fill-rule:nonzero;stroke:none"
         d="m 6654.81,4051 -189.14,-83.74 -74.03,-60.51 c 8.19,-7.5 81.88,-71.98 127.88,-196.84 110.78,97.25 163.46,244.51 163.46,244.51 l -28.17,96.58" /><path
         id="path82"
         style="fill:#282a4d;fill-opacity:1;fill-rule:nonzero;stroke:none"
         d="m 6068.84,4299.59 c -9.39,12.84 -271.81,156.09 -250.48,377.89 21.32,221.79 450.81,607.02 844.92,482.72 394.12,-124.3 348.99,-510.57 487.51,-853.55 138.54,-342.98 425.83,-653.02 448.56,-1076.11 22.72,-423.09 -154.04,-523.5 -355.97,-348.92 -201.91,174.59 -368.62,836.88 -611.92,1010.64 -243.3,173.77 -353.11,363.39 -353.11,363.39 l -209.51,43.94" /><path
         id="path84"
         style="fill:#fabbb7;fill-opacity:1;fill-rule:nonzero;stroke:none"
         d="m 5974.51,4576.01 c 0,0 -59.44,-738.83 282.51,-738.87 263.52,-0.02 416,139.75 489.05,333.69 0,0 98.97,171.48 -5.65,215.33 -25.56,10.72 -55.19,4.68 -75.84,-13.82 -27.09,-24.26 -58.62,-63.92 -33.24,-102.35 40.52,-61.36 -33.86,-55.9 -96.38,40 -92.66,142.12 -479.56,146.47 -560.45,266.02" /><path
         id="path86"
         style="fill:#3d59b1;fill-opacity:1;fill-rule:nonzero;stroke:none"
         d="m 7200.88,3443.09 c -98.58,193.58 -250.81,268.12 -456.33,394.05 0,0 -366.66,-323.41 -602.15,-680.51 -235.51,-357.1 -689.58,-1519.59 -627.78,-1583.35 52.37,-54.02 41.8,-27.71 202.29,-148.74 0.64,-1.25 42.14,-81.94 117.72,-187.42 229.18,-433.94 451.51,-887.518 607.24,-793.62 39.33,23.699 116.39,135.32 209.35,301.109 v 0 c 562.89,47.243 777.53,204.153 907.49,839.621 113.08,552.9 -56.17,1441.61 -357.83,1858.86" /><path
         id="path88"
         style="fill:#2b4d9f;fill-opacity:1;fill-rule:nonzero;stroke:none"
         d="m 6942.73,3026.42 c 0,0 -17.92,-901.27 -120.26,-1119.75 -102.32,-218.48 -737.78,-31.93 -737.78,-31.93 0,0 706.38,584.97 858.04,1151.68" /><path
         id="path90"
         style="fill:#fabbb7;fill-opacity:1;fill-rule:nonzero;stroke:none"
         d="m 5390.6,2051.38 c -116.26,71.24 -137.72,112.14 -313.89,89.75 -176.18,-22.39 -446.86,-134.98 -405.13,-189.76 41.73,-54.78 27.23,-3.74 191.44,10.75 122.33,10.79 146.84,43.18 205.54,5.46 -26.79,-2.69 -78.69,-8.3 -122.68,-15.41 -62.3,-10.08 -187.56,-43.79 -188.04,-61.04 -0.48,-17.24 10.24,-37.69 31.43,-44.15 21.2,-6.47 194.92,44.11 286.1,12.38 91.18,-31.73 274.58,-107.71 274.58,-107.71 l -0.02,0.12 c 47.4,-20.86 103.45,-38.92 181.85,-63.34 89.27,-27.8 154.47,-45.52 199.4,-56.67 20.43,87.07 53.08,173.07 79.01,234.21 -93.13,34.86 -326.49,128.36 -419.59,185.41" /><path
         id="path92"
         style="fill:#577cc7;fill-opacity:1;fill-rule:nonzero;stroke:none"
         d="m 6744.55,3837.14 c 0,0 -399.55,-371.58 -487.53,-521.16 l 140.53,113.1 c 0,0 232.28,-165.25 248.29,-137.49 16.03,27.76 225.16,468.96 225.16,468.96 l -126.45,76.59" /><path
         id="path94"
         style="fill:#41414e;fill-opacity:1;fill-rule:nonzero;stroke:none"
         d="m 4915.82,1763.85 -183,52.04 8.91,31.36 183.02,-52.04 -8.93,-31.36" /><path
         id="path96"
         style="fill:#41414e;fill-opacity:1;fill-rule:nonzero;stroke:none"
         d="m 5329.92,1652.87 -146.43,41.63 8.92,31.37 146.42,-41.64 -8.91,-31.36" /><path
         id="path98"
         style="fill:#41414e;fill-opacity:1;fill-rule:nonzero;stroke:none"
         d="m 4711.75,1821.88 -183.02,52.04 8.92,31.36 183.02,-52.04 -8.92,-31.36" /><path
         id="path100"
         style="fill:#ffffff;fill-opacity:1;fill-rule:nonzero;stroke:none"
         d="m 6111.82,4012.73 c -5.25,15.6 4.38,32.25 20.37,36.12 61.19,14.8 204.33,46.5 216.95,22.4 16.1,-30.73 -99.53,-153.68 -166.85,-134.65 -41.6,11.76 -61.41,49.21 -70.47,76.13" /><path
         id="path102"
         style="fill:#31895f;fill-opacity:1;fill-rule:nonzero;stroke:none"
         d="m 9122.36,1088.5 c 35.32,82.39 61.31,166.42 61.31,235.56 0,216.61 -99.54,388.3 -99.54,388.3 -137.57,-109.31 -204.9,-364.89 -204.9,-364.89 0,0 -38.05,-301.5 -117.09,-43.9 -79.03,257.59 -331.78,365.9 -331.78,365.9 -56.64,-199.05 68.34,-471.29 74.19,-480.06 5.85,-8.79 70.25,-102.46 -20.49,-70.26 -90.75,32.2 -278.09,35.13 -278.09,35.13 111.24,-263.452 354.2,-336.632 354.2,-336.632 l 38.05,79.032 c 0,0 125.88,-172.7 143.43,-188.61 17.57,-15.91 187.35,36.399 187.35,36.399 0,0 58.63,83.64 119.64,194.511 -7.2,-77.679 12.08,-150.609 12.08,-150.609 l 81.96,23.418 c 0,0 245.89,208.401 351.27,396.921 0,0 -257.13,-35.64 -371.59,-120.21" /><path
         id="path104"
         style="fill:#41bc7e;fill-opacity:1;fill-rule:nonzero;stroke:none"
         d="m 8773.85,823.5 c 4.29,-13.98 -60.81,191.19 -75.43,472.09 -14.62,280.89 126.72,509.96 126.72,509.96 0,0 102.35,-264.47 136.47,-509.96 34.12,-245.49 -108.73,-685.77 -108.73,-685.77 0,0 123.76,517.28 223.52,678.17 96.42,155.5 375.79,298.24 375.79,298.24 0,0 -64.62,-467.19 -261.47,-683.57 C 9049.23,747.121 8942.11,708.07 8942.11,708.07 l -256.69,26.258 c 0,0 -485.27,308.692 -456.03,648.272 0,0 378.75,-18.1 544.46,-559.1" /><path
         id="path106"
         style="fill:#353e51;fill-opacity:1;fill-rule:nonzero;stroke:none"
         d="m 9025.05,107 h -365.42 c -102.16,0 -184.98,82.801 -184.98,185 l -58.93,550.41 h 316.8 508.25 L 9210.03,292 c 0,-102.199 -82.81,-185 -184.98,-185" /></g></g></svg>
